<?xml version="1.0" encoding="utf-8"?>
<svg viewBox="-11.5 413.7 1417.4 921.5" width="1417.4" height="921.5" xmlns="http://www.w3.org/2000/svg">
  <defs>
    <style type="text/css">
	.st0{fill-rule:evenodd;clip-rule:evenodd;fill:#6F8A43;}
	.st1{fill-rule:evenodd;clip-rule:evenodd;fill:#C2E4EE;}
	.st2{fill-rule:evenodd;clip-rule:evenodd;fill:#C1DA9F;}
	.st3{fill-rule:evenodd;clip-rule:evenodd;fill:#9BBF6F;}
	.st4{fill-rule:evenodd;clip-rule:evenodd;fill:#5D7434;}
	.st5{fill-rule:evenodd;clip-rule:evenodd;fill:#F3A244;}
	.st6{fill-rule:evenodd;clip-rule:evenodd;fill:#BFD66D;}
	.st7{fill-rule:evenodd;clip-rule:evenodd;fill:#9AC043;}
	.st8{fill-rule:evenodd;clip-rule:evenodd;fill:#FFFFFF;}
	.st9{fill-rule:evenodd;clip-rule:evenodd;fill:#B78353;}
	.st10{fill-rule:evenodd;clip-rule:evenodd;fill:#A8703E;}
	.st11{opacity:0.58;fill-rule:evenodd;clip-rule:evenodd;fill:#763E24;}
	.st12{fill-rule:evenodd;clip-rule:evenodd;fill:#86746B;}
	.st13{fill-rule:evenodd;clip-rule:evenodd;fill:#FDD93F;}
	.st14{fill-rule:evenodd;clip-rule:evenodd;fill:#231916;}
	.st15{fill-rule:evenodd;clip-rule:evenodd;fill:#E74133;}
	.st16{fill-rule:evenodd;clip-rule:evenodd;fill:#6BBB6D;}
	.st17{fill-rule:evenodd;clip-rule:evenodd;fill:#E50013;}
	.st18{fill-rule:evenodd;clip-rule:evenodd;fill:#EDBE75;}
	.st19{clip-path:url(#SVGID_2_);}
	.st20{fill-rule:evenodd;clip-rule:evenodd;fill:#E9B057;}
	.st21{fill-rule:evenodd;clip-rule:evenodd;fill:#F5C885;}
	.st22{clip-path:url(#SVGID_4_);}
	.st23{fill-rule:evenodd;clip-rule:evenodd;fill:#CAA265;}
	.st24{fill-rule:evenodd;clip-rule:evenodd;fill:#EF8200;}
	.st25{clip-path:url(#SVGID_6_);}
	.st26{clip-path:url(#SVGID_8_);}
	.st27{fill-rule:evenodd;clip-rule:evenodd;fill:#4CB250;}
	.st28{clip-path:url(#SVGID_10_);}
	.st29{clip-path:url(#SVGID_12_);}
	.st30{fill-rule:evenodd;clip-rule:evenodd;fill:#755896;}
	.st31{fill-rule:evenodd;clip-rule:evenodd;fill:#763E24;}
	.st32{fill-rule:evenodd;clip-rule:evenodd;fill:#F4A64C;}
	.st33{fill-rule:evenodd;clip-rule:evenodd;fill:#D5772C;}
	.st34{fill-rule:evenodd;clip-rule:evenodd;fill:#49BCD9;}
	.st35{fill-rule:evenodd;clip-rule:evenodd;fill:#F5EEDC;}
	.st36{fill-rule:evenodd;clip-rule:evenodd;fill:#DADBD0;}
	.st37{fill-rule:evenodd;clip-rule:evenodd;fill:#B3D251;}
	.st38{fill-rule:evenodd;clip-rule:evenodd;fill:#83A24F;}
	.st39{fill:#C91F1F;}
	.st40{fill:#F0B317;}
	.st41{fill:#E7413D;}
	.st42{fill:#FDD93F;}
	.st43{fill:#F7B03E;}
</style>
  </defs>
  <g>
    <path class="st4" d="M689.6,1335.2c353.8,0,642.4-26.8,642.4-59.6c0-32.8-288.6-59.6-642.4-59.6c-353.8,0-642.4,26.8-642.4,59.6 C47.2,1308.4,335.8,1335.2,689.6,1335.2z"/>
    <g>
      <path class="st5" d="M1057.6,733.3c-1.4,0.9-5,2.7-6.5,3.3l-2.5,1.7l-3.6,2.8c-5.3,7.8-8.9,10.6-2.5,24.2 c2.4,5.2,11.2,14.2,15.2,18l8.6,8c1.7,1.7,2.4,1.8,4.3,3.7c1.3,1.3,2.9,2.6,4.8,3.8c17.6,10.9,32.1,23.4,21.6-14.2 c-3.7-13.2-9.8-34.2-17.4-44.2C1074.8,734.2,1068.8,729.3,1057.6,733.3z"/>
      <path class="st6" d="M1045,741.1l3.6-2.8c-4.2-5-10.2-15.3-17.6-24.3l-6.4-7.3c-4.9-5.9-8.6-6.6-8.7-10.3c-1.1,2.7,0,0.2-1.4,1.5 c-1.3-2.2-13.8-11.1-19.7,0.8C984.1,720.1,1029.7,736.3,1045,741.1z"/>
      <path class="st6" d="M1029.3,690.7c0.4,17.7,14.7,35.8,21.9,45.9c1.5-0.6,5.1-2.5,6.5-3.3c-0.6-9.1-4.9-60.9-24-49.3 C1030,686.2,1031.3,687.3,1029.3,690.7z"/>
      <path class="st7" d="M1015.9,696.5c0.1,3.7,3.9,4.4,8.7,10.3l6.4,7.3c7.4,9,13.4,19.3,17.6,24.3l2.5-1.7 c-7.2-10.1-21.5-28.2-21.9-45.9C1022.7,688.6,1017.3,690.1,1015.9,696.5z"/>
    </g>
    <rect x="1199.9" y="521.8" class="st9" width="27.9" height="414.8"/>
    <rect x="235.5" y="526.9" class="st9" width="27.9" height="414.8"/>
    <rect x="165.7" y="884.5" class="st9" width="1119.1" height="66.5"/>
    <rect x="234.5" y="948.5" class="st10" width="981.5" height="249.4"/>
    <rect x="234.5" y="948.9" class="st11" width="981.5" height="36"/>
    <g>
      <path class="st12" d="M395.7,1280.9c40.5,0,73.5-33,73.5-73.5c0-40.5-33-73.5-73.5-73.5c-40.5,0-73.5,33-73.5,73.5 C322.2,1247.9,355.2,1280.9,395.7,1280.9z"/>
      <path class="st13" d="M395.7,1231.2c13.1,0,23.8-10.7,23.8-23.8c0-13.1-10.7-23.8-23.8-23.8c-13.1,0-23.8,10.7-23.8,23.8 C371.9,1220.5,382.6,1231.2,395.7,1231.2z"/>
      <path class="st14" d="M395.7,1131.9c20.9,0,39.7,8.5,53.4,22.1c13.7,13.7,22.1,32.5,22.1,53.4c0,20.8-8.5,39.7-22.1,53.4 c-13.7,13.7-32.5,22.1-53.4,22.1c-20.9,0-39.7-8.5-53.4-22.1c-13.7-13.7-22.1-32.5-22.1-53.4c0-20.9,8.5-39.7,22.1-53.4 C356,1140.3,374.9,1131.9,395.7,1131.9L395.7,1131.9z M439.8,1163.3c-11.3-11.3-26.9-18.2-44.1-18.2c-17.2,0-32.8,7-44.1,18.2 c-11.3,11.3-18.2,26.8-18.2,44.1c0,17.2,7,32.8,18.2,44.1c11.3,11.3,26.8,18.2,44.1,18.2c17.2,0,32.8-7,44.1-18.2 c11.3-11.3,18.2-26.8,18.2-44.1C458,1190.2,451.1,1174.6,439.8,1163.3z"/>
      <path class="st13" d="M308.5,1208.4l9-0.4c5.4-2.3,4.9-5.9,6-12.3c0.8-5,2.1-9.8,3.9-14.4c4.5-11.4,14.4-24.8,24.2-31.6 c13.2-9.2,24.2-13.9,41.9-14.9c18.6,0.4,29.3,3.5,43.9,12.9c15.6,10,26.8,28.2,30.4,46.5c1.4,7.3,0.9,11.3,6.2,13.8l8.6,0.1 c3.2-19.5-10.1-45.2-22.9-59.8c-8.4-9.5-24-18.9-37.2-23.2c-10.1-3.3-31.4-6.7-41.6-2.8c-10.9,1-21.7,5.7-29.3,10.3 c-9.8,5.9-14.3,9.9-21.6,17.8C319.5,1162.1,306.8,1186.9,308.5,1208.4z"/>
    </g>
    <g>
      <ellipse transform="matrix(0.9796 -0.2011 0.2011 0.9796 -220.7096 241.7344)" class="st12" cx="1079.6" cy="1207.4" rx="73.5" ry="73.5"/>
      <path class="st13" d="M1079.6,1231.2c13.1,0,23.8-10.7,23.8-23.8c0-13.1-10.7-23.8-23.8-23.8s-23.8,10.7-23.8,23.8 C1055.8,1220.5,1066.5,1231.2,1079.6,1231.2z"/>
      <path class="st14" d="M1079.6,1131.9c20.8,0,39.7,8.5,53.4,22.1c13.7,13.7,22.1,32.5,22.1,53.4c0,20.9-8.5,39.7-22.1,53.4 c-13.7,13.7-32.5,22.1-53.4,22.1c-20.9,0-39.7-8.5-53.4-22.1c-13.7-13.7-22.1-32.5-22.1-53.4c0-20.9,8.5-39.7,22.1-53.4 C1039.9,1140.3,1058.8,1131.9,1079.6,1131.9L1079.6,1131.9z M1123.7,1163.3c-11.3-11.3-26.9-18.2-44.1-18.2s-32.8,7-44.1,18.2 c-11.3,11.3-18.2,26.8-18.2,44.1c0,17.2,7,32.8,18.2,44.1c11.3,11.3,26.9,18.2,44.1,18.2s32.8-7,44.1-18.2 c11.3-11.3,18.2-26.8,18.2-44.1C1141.9,1190.2,1135,1174.6,1123.7,1163.3z"/>
      <path class="st13" d="M992.4,1208.4l9-0.4c5.4-2.3,4.9-5.9,6-12.3c0.8-5,2.1-9.8,3.9-14.4c4.5-11.4,14.4-24.8,24.2-31.6 c13.2-9.2,24.2-13.9,41.9-14.9c18.6,0.4,29.3,3.5,43.9,12.9c15.6,10,26.8,28.2,30.4,46.5c1.5,7.3,0.9,11.3,6.2,13.8l8.6,0.1 c3.2-19.5-10.1-45.2-22.9-59.8c-8.4-9.5-24-18.9-37.2-23.2c-10.1-3.3-31.4-6.7-41.6-2.8c-10.9,1-21.7,5.7-29.3,10.3 c-9.8,5.9-14.3,9.9-21.6,17.8C1003.4,1162.1,990.7,1186.9,992.4,1208.4z"/>
    </g>
    <g>
      <path class="st15" d="M778.3,1088.3l-9.8,1.8c1.5,6,3.5,16,2,22.4c-1.3,5.9,1.4-4.4-0.5,1.5l-0.7,1.3c-1.2-4.7-2.1-9.6-4-14.4 c-8.9-22.9-17.9-8.7-33.4-1.7c5.5-11.1,10.4-15.3,21.9-20.2l-2.2-3.7c-23.5-1.4-39.2,9.3-46,25.9c-16.3,40.1,41.7,74.6,73.2,38.9 c5.9-6.7,9.8-14.3,9.8-25.9C788.7,1101.1,783.1,1095.4,778.3,1088.3z"/>
      <path class="st16" d="M751.7,1075.3l2.2,3.7c-11.5,4.9-16.4,9.1-21.9,20.2c15.4-7,24.5-21.2,33.4,1.7c1.8,4.7,2.8,9.6,4,14.4 l0.7-1.3c1.9-5.9-0.9,4.5,0.5-1.5c1.4-6.4-0.6-16.4-2-22.4l9.8-1.8l7.8,0.3c-5.1-3.4-6.4-8.1-19.7-8.6l7.5-20.1l-8.5-0.2 c-0.9,5-1.5,13.9-4,17.4c-4.1-5.2-8.7-12.3-18.3-11.4c1.9,1.7,2.4,1.5,4.5,3.6C749.6,1071.4,750.3,1072.1,751.7,1075.3z"/>
    </g>
    <g>
      <path class="st17" d="M767,1056.2l-9.8,1.8c1.5,6,3.5,16,2,22.4c-1.3,5.9,1.4-4.4-0.5,1.5l-0.7,1.3c-1.2-4.7-2.1-9.6-4-14.4 c-8.9-22.9-17.9-8.7-33.4-1.7c5.5-11.1,10.4-15.3,21.9-20.2l-2.2-3.7c-23.5-1.4-39.2,9.3-46,25.9c-16.3,40.1,41.7,74.6,73.2,38.9 c5.9-6.7,9.8-14.3,9.8-25.9C777.4,1069.1,771.8,1063.4,767,1056.2z"/>
      <path class="st16" d="M740.4,1043.3l2.2,3.7c-11.5,4.9-16.4,9.1-21.9,20.2c15.4-7,24.5-21.2,33.4,1.7c1.8,4.7,2.8,9.6,4,14.4 l0.7-1.3c1.9-5.9-0.9,4.5,0.5-1.5c1.4-6.4-0.6-16.4-2-22.4l9.8-1.8l7.8,0.3c-5.1-3.4-6.4-8.1-19.7-8.6l7.5-20.1l-8.5-0.2 c-0.9,5-1.5,13.9-4,17.4c-4.1-5.2-8.7-12.3-18.3-11.4c1.9,1.7,2.4,1.5,4.5,3.6C738.2,1039.4,739,1040.1,740.4,1043.3z"/>
    </g>
    <g>
      <path class="st15" d="M702.7,1016.8l-9.8,1.8c1.5,6,3.5,16,2,22.4c-1.3,5.9,1.4-4.4-0.5,1.5l-0.6,1.3c-1.2-4.7-2.2-9.6-4-14.4 c-8.9-22.9-17.9-8.7-33.4-1.7c5.5-11.1,10.4-15.3,21.9-20.2l-2.2-3.7c-23.5-1.4-39.2,9.3-46,25.9c-16.3,40.1,41.7,74.6,73.2,38.9 c5.9-6.7,9.8-14.3,9.8-25.9C713,1029.6,707.5,1023.9,702.7,1016.8z"/>
      <path class="st16" d="M676.1,1003.8l2.2,3.7c-11.5,4.9-16.4,9.1-21.9,20.2c15.4-7,24.5-21.2,33.4,1.7c1.8,4.7,2.8,9.6,4,14.4 l0.6-1.3c1.9-5.9-0.9,4.5,0.5-1.5c1.4-6.4-0.6-16.4-2-22.4l9.8-1.8l7.8,0.3c-5.1-3.4-6.4-8.1-19.7-8.6l7.5-20.1l-8.5-0.2 c-0.9,5-1.5,13.9-4,17.4c-4.1-5.2-8.7-12.3-18.4-11.4c1.9,1.7,2.4,1.5,4.5,3.6C673.9,999.9,674.7,1000.6,676.1,1003.8z"/>
    </g>
    <g>
      <path class="st15" d="M584.1,1019.8l9.8,1.8c-1.5,6-3.5,16-2,22.4c1.3,5.9-1.4-4.4,0.5,1.5l0.6,1.3c1.2-4.7,2.2-9.6,4-14.4 c8.9-22.9,17.9-8.7,33.4-1.7c-5.5-11.1-10.4-15.3-21.9-20.2l2.2-3.7c23.5-1.4,39.2,9.3,46,25.9c16.3,40.1-41.7,74.6-73.2,38.9 c-5.9-6.7-9.8-14.3-9.8-25.9C573.7,1032.6,579.2,1026.9,584.1,1019.8z"/>
      <path class="st16" d="M610.6,1006.8l-2.2,3.7c11.5,4.9,16.4,9.1,21.9,20.2c-15.4-7-24.5-21.2-33.4,1.7c-1.8,4.7-2.8,9.6-4,14.4 l-0.6-1.3c-1.9-5.9,0.9,4.5-0.5-1.5c-1.4-6.4,0.6-16.4,2-22.4l-9.8-1.8l-7.8,0.3c5.1-3.4,6.4-8.1,19.7-8.6l-7.5-20.1l8.5-0.2 c0.9,5,1.5,13.9,4,17.4c4.1-5.2,8.7-12.3,18.3-11.4c-1.9,1.7-2.4,1.5-4.5,3.6C612.8,1002.9,612,1003.6,610.6,1006.8z"/>
    </g>
    <g>
      <path class="st17" d="M553.7,1009.1l-9.8,1.8c1.5,6,3.5,16,2,22.4c-1.3,5.9,1.4-4.4-0.5,1.5l-0.6,1.3c-1.2-4.7-2.2-9.6-4-14.4 c-8.9-22.9-17.9-8.7-33.4-1.7c5.5-11.1,10.4-15.3,21.9-20.2l-2.2-3.7c-23.5-1.4-39.2,9.3-46,25.9c-16.3,40.1,41.7,74.6,73.2,38.9 c5.9-6.7,9.8-14.3,9.8-25.9C564.1,1021.9,558.6,1016.2,553.7,1009.1z"/>
      <path class="st16" d="M527.2,996.1l2.2,3.7c-11.5,4.9-16.4,9.1-21.9,20.2c15.4-7,24.5-21.2,33.4,1.7c1.8,4.7,2.8,9.6,4,14.4 l0.6-1.3c1.9-5.9-0.9,4.5,0.5-1.5c1.4-6.4-0.6-16.4-2-22.4l9.8-1.8l7.8,0.3c-5.1-3.4-6.4-8.1-19.7-8.6l7.5-20.1l-8.5-0.2 c-0.9,5-1.5,13.9-4,17.4c-4.1-5.2-8.7-12.3-18.3-11.4c1.9,1.7,2.4,1.5,4.5,3.6C525,992.2,525.8,992.9,527.2,996.1z"/>
    </g>
    <g>
      <path class="st15" d="M486,1043.3l-9.8,1.8c1.5,6,3.5,16,2,22.4c-1.3,5.9,1.4-4.4-0.5,1.5l-0.6,1.3c-1.2-4.7-2.2-9.6-4-14.4 c-8.9-22.9-17.9-8.7-33.4-1.7c5.5-11.1,10.4-15.3,21.9-20.2l-2.2-3.7c-23.5-1.4-39.2,9.3-46,25.9c-16.3,40.1,41.7,74.6,73.2,38.9 c5.9-6.7,9.8-14.3,9.8-25.9C496.4,1056.1,490.9,1050.4,486,1043.3z"/>
      <path class="st16" d="M459.5,1030.3l2.2,3.7c-11.5,4.9-16.4,9.1-21.9,20.2c15.4-7,24.5-21.2,33.4,1.7c1.8,4.7,2.8,9.6,4,14.4 l0.6-1.3c1.9-5.9-0.9,4.5,0.5-1.5c1.4-6.4-0.6-16.4-2-22.4l9.8-1.8l7.8,0.3c-5.1-3.4-6.4-8.1-19.7-8.6l7.5-20.1l-8.5-0.2 c-0.9,5-1.5,13.9-4,17.4c-4.1-5.2-8.7-12.3-18.4-11.4c1.9,1.7,2.4,1.5,4.5,3.6C457.3,1026.4,458.1,1027.1,459.5,1030.3z"/>
    </g>
    <g>
      <path class="st17" d="M665,1041.5l-9.8,1.8c1.5,6,3.5,16,2,22.4c-1.3,5.9,1.4-4.4-0.5,1.5l-0.6,1.3c-1.2-4.7-2.2-9.6-4-14.4 c-8.9-22.9-17.9-8.7-33.4-1.7c5.5-11.1,10.4-15.3,21.9-20.2l-2.2-3.7c-23.5-1.4-39.2,9.3-46,25.9c-16.3,40.1,41.7,74.6,73.2,38.9 c5.9-6.7,9.8-14.3,9.8-25.9C675.4,1054.3,669.9,1048.6,665,1041.5z"/>
      <path class="st16" d="M638.5,1028.5l2.2,3.7c-11.5,4.9-16.4,9.1-21.9,20.2c15.4-7,24.5-21.2,33.4,1.7c1.8,4.7,2.8,9.6,4,14.4 l0.6-1.3c1.9-5.9-0.9,4.5,0.5-1.5c1.4-6.4-0.6-16.4-2-22.4l9.8-1.8l7.8,0.3c-5.1-3.4-6.4-8.1-19.7-8.6l7.5-20.1l-8.5-0.2 c-0.9,5-1.5,13.9-4,17.4c-4.1-5.2-8.7-12.3-18.4-11.4c1.9,1.7,2.4,1.5,4.5,3.6C636.3,1024.6,637.1,1025.4,638.5,1028.5z"/>
    </g>
    <g>
      <path class="st15" d="M572.5,1053.7l-7.7,1.4c1.2,4.7,2.7,12.5,1.6,17.5c-1,4.7,1.1-3.5-0.4,1.2l-0.5,1.1 c-0.9-3.7-1.7-7.5-3.1-11.3c-7-18-14.1-6.8-26.1-1.4c4.3-8.7,8.2-12,17.2-15.8l-1.8-2.9c-18.4-1.1-30.7,7.3-36,20.3 c-12.8,31.4,32.6,58.4,57.3,30.4c4.6-5.2,7.7-11.2,7.7-20.3C580.6,1063.7,576.3,1059.3,572.5,1053.7z"/>
      <path class="st16" d="M551.7,1043.5l1.8,2.9c-9,3.8-12.8,7.1-17.2,15.8c12.1-5.5,19.2-16.6,26.1,1.4c1.4,3.7,2.2,7.5,3.1,11.3 l0.5-1.1c1.5-4.6-0.7,3.5,0.4-1.2c1.1-5-0.5-12.8-1.6-17.5l7.7-1.4l6.1,0.2c-4-2.6-5-6.3-15.4-6.7l5.9-15.8l-6.7-0.1 c-0.7,3.9-1.2,10.9-3.1,13.7c-3.2-4-6.8-9.6-14.4-8.9c1.5,1.3,1.9,1.2,3.5,2.8C550,1040.5,550.6,1041,551.7,1043.5z"/>
    </g>
    <g>
      <path class="st17" d="M459.1,1068.2l9.8,1.8c-1.5,6-3.5,16-2,22.4c1.3,5.9-1.4-4.4,0.5,1.5l0.6,1.3c1.2-4.7,2.2-9.6,4-14.4 c8.9-22.9,17.9-8.7,33.4-1.7c-5.5-11.1-10.4-15.3-21.9-20.2l2.2-3.7c23.5-1.4,39.2,9.3,46,25.9c16.3,40.1-41.7,74.6-73.2,38.9 c-5.9-6.7-9.8-14.3-9.8-25.9C448.7,1081.1,454.3,1075.4,459.1,1068.2z"/>
      <path class="st16" d="M485.7,1055.2l-2.2,3.7c11.5,4.9,16.4,9.1,21.9,20.2c-15.4-7-24.5-21.2-33.4,1.7c-1.8,4.7-2.8,9.6-4,14.4 l-0.6-1.3c-1.9-5.9,0.9,4.5-0.5-1.5c-1.4-6.4,0.6-16.4,2-22.4l-9.8-1.8l-7.8,0.3c5.1-3.4,6.4-8.1,19.7-8.6l-7.5-20.1l8.5-0.2 c0.9,5,1.5,13.9,4,17.4c4.1-5.2,8.7-12.3,18.3-11.4c-1.9,1.7-2.4,1.5-4.5,3.6C487.8,1051.4,487.1,1052.1,485.7,1055.2z"/>
    </g>
    <g>
      <path class="st17" d="M607.4,1083.4l-9.8,1.8c1.5,6,3.5,16,2,22.4c-1.3,5.9,1.4-4.4-0.5,1.5l-0.6,1.3c-1.2-4.7-2.2-9.6-4-14.4 c-8.9-22.9-17.9-8.7-33.4-1.7c5.5-11.1,10.4-15.3,21.9-20.2l-2.2-3.7c-23.5-1.4-39.2,9.3-46,25.9c-16.3,40.1,41.7,74.6,73.2,38.9 c5.9-6.7,9.8-14.3,9.8-25.9C617.8,1096.3,612.3,1090.6,607.4,1083.4z"/>
      <path class="st16" d="M580.9,1070.4l2.2,3.7c-11.5,4.9-16.4,9.1-21.9,20.2c15.4-7,24.5-21.2,33.4,1.7c1.8,4.7,2.8,9.6,4,14.4 l0.6-1.3c1.9-5.9-0.9,4.5,0.5-1.5c1.4-6.4-0.6-16.4-2-22.4l9.8-1.8l7.8,0.3c-5.1-3.4-6.4-8.1-19.7-8.6l7.5-20.1l-8.5-0.2 c-0.9,5-1.5,13.9-4,17.4c-4.1-5.2-8.7-12.3-18.3-11.4c1.9,1.7,2.4,1.5,4.5,3.6C578.7,1066.6,579.5,1067.3,580.9,1070.4z"/>
    </g>
    <g>
      <path class="st15" d="M703,1056.2l-9.8,1.8c1.5,6,3.5,16,2,22.4c-1.3,5.9,1.4-4.4-0.5,1.5l-0.6,1.3c-1.2-4.7-2.2-9.6-4-14.4 c-8.9-22.9-17.9-8.7-33.4-1.7c5.5-11.1,10.4-15.3,21.9-20.2l-2.2-3.7c-23.5-1.4-39.2,9.3-46,25.9c-16.3,40.1,41.7,74.6,73.2,38.9 c5.9-6.7,9.8-14.3,9.8-25.9C713.4,1069.1,707.9,1063.4,703,1056.2z"/>
      <path class="st16" d="M676.5,1043.3l2.2,3.7c-11.5,4.9-16.4,9.1-21.9,20.2c15.4-7,24.5-21.2,33.4,1.7c1.8,4.7,2.8,9.6,4,14.4 l0.6-1.3c1.9-5.9-0.9,4.5,0.5-1.5c1.4-6.4-0.6-16.4-2-22.4l9.8-1.8l7.8,0.3c-5.1-3.4-6.4-8.1-19.7-8.6l7.5-20.1l-8.5-0.2 c-0.9,5-1.5,13.9-4,17.4c-4.1-5.2-8.7-12.3-18.3-11.4c1.9,1.7,2.4,1.5,4.5,3.6C674.3,1039.4,675.1,1040.1,676.5,1043.3z"/>
    </g>
    <g>
      <path class="st15" d="M616.3,1095.4l9.8,1.8c-1.5,6-3.5,16-2,22.4c1.3,5.9-1.4-4.4,0.5,1.5l0.6,1.3c1.2-4.7,2.1-9.6,4-14.4 c8.9-22.9,17.9-8.7,33.4-1.7c-5.5-11.1-10.4-15.3-21.9-20.2l2.2-3.7c23.5-1.4,39.2,9.3,46,25.9c16.3,40.1-41.7,74.6-73.2,38.9 c-5.9-6.7-9.8-14.3-9.8-25.9C605.9,1108.2,611.4,1102.5,616.3,1095.4z"/>
      <path class="st16" d="M642.8,1082.4l-2.2,3.7c11.5,4.9,16.4,9.1,21.9,20.2c-15.4-7-24.5-21.2-33.4,1.7c-1.8,4.7-2.8,9.6-4,14.4 l-0.6-1.3c-1.9-5.9,0.9,4.5-0.5-1.5c-1.4-6.4,0.6-16.4,2-22.4l-9.8-1.8l-7.8,0.3c5.1-3.4,6.4-8.1,19.7-8.6l-7.5-20.1l8.5-0.2 c0.9,5,1.5,13.9,4,17.4c4.1-5.2,8.7-12.3,18.3-11.4c-1.9,1.7-2.4,1.5-4.5,3.6C645,1078.5,644.2,1079.3,642.8,1082.4z"/>
    </g>
    <g>
      <path class="st18" d="M414.7,1193.9l-0.2,72.8c10.3,3.7,10.3-1,13.4,5.3l-13.9,2.3l0.1,16.4l420.2,0.9l0.8-18l-14.4-1 c8.7-15.1,17.4,25.2,13.7-78.8H414.7z"/>
      <g>
        <defs>
          <path id="SVGID_1_" d="M414.7,1193.9l-0.2,72.8c10.3,3.7,10.3-1,13.4,5.3l-13.9,2.3l0.1,16.4l420.2,0.9l0.8-18l-14.4-1 c8.7-15.1,17.4,25.2,13.7-78.8H414.7z"/>
        </defs>
        <clipPath id="SVGID_2_">
          <path d="M 414.7 1193.9 L 414.5 1266.7 C 424.8 1270.4 424.8 1265.7 427.9 1272 L 414 1274.3 L 414.1 1290.7 L 834.3 1291.6 L 835.1 1273.6 L 820.7 1272.6 C 829.4 1257.5 838.1 1297.8 834.4 1193.8 L 414.7 1193.8 Z" style="overflow: visible;"/>
        </clipPath>
        <g class="st19">
          <path class="st20" d="M424.9,1267.4l0,8.6h420.3c0.1-2.5,0.2-5.3,0.3-8.6H424.9z"/>
        </g>
      </g>
      <path class="st21" d="M414.4,1108c-0.6,4.2,0.1,12.1,0.1,27.3c0,15.5-1,32.5,0.6,47.7l12.3,2.7l-0.1,8.6 c10.2,2.4,15.2,1.7,25.6,1.7c5.3-6.3,4.2,8.5,4.3-8.7h338.4l0,8.7l26.3-1.1l-0.3-10l12.6-1l0.4-76H414.4z"/>
      <g>
        <defs>
          <path id="SVGID_3_" d="M414.4,1108c-0.6,4.2,0.1,12.1,0.1,27.3c0,15.5-1,32.5,0.6,47.7l12.3,2.7l-0.1,8.6 c10.2,2.4,15.2,1.7,25.6,1.7c5.3-6.3,4.2,8.5,4.3-8.7h338.4l0,8.7l26.3-1.1l-0.3-10l12.6-1l0.4-76H414.4z"/>
        </defs>
        <clipPath id="SVGID_4_">
          <path d="M 414.4 1108 C 413.8 1112.2 414.5 1120.1 414.5 1135.3 C 414.5 1150.8 413.5 1167.8 415.1 1183 L 427.4 1185.7 L 427.3 1194.3 C 437.5 1196.7 442.5 1196 452.9 1196 C 458.2 1189.7 457.1 1204.5 457.2 1187.3 L 795.6 1187.3 L 795.6 1196 L 821.9 1194.9 L 821.6 1184.9 L 834.2 1183.9 L 834.6 1107.9 L 414.4 1107.9 Z" style="overflow: visible;"/>
        </clipPath>
        <g class="st22">
          <rect x="324.3" y="1174.7" class="st20" width="828.3" height="10.3"/>
        </g>
      </g>
      <path class="st23" d="M793.5,1107.6l26.5,0.4l0-26.8c-1.8-5.8-18.5-6-23.1-2.7C791,1082.5,793.3,1098.5,793.5,1107.6z"/>
      <polygon class="st23" points="428.3,1107.1 455.2,1107.6 454.7,1078.1 429.9,1077.4 &#9;&#9;"/>
    </g>
    <g>
      <path class="st24" d="M1063.8,770.4c-1.4-0.9-5-2.7-6.5-3.3l-2.5-1.7l-3.6-2.8c-5.3-7.8-8.9-10.6-2.5-24.2 c2.4-5.2,11.2-14.2,15.2-18l8.6-8c1.7-1.7,2.4-1.8,4.3-3.7c1.3-1.3,2.9-2.6,4.8-3.8c17.6-10.9,32.1-23.4,21.6,14.2 c-3.7,13.2-9.8,34.2-17.4,44.2C1080.9,769.5,1074.9,774.4,1063.8,770.4z"/>
      <path class="st6" d="M1051.2,762.6l3.6,2.8c-4.2,5-10.2,15.3-17.6,24.3l-6.4,7.3c-4.9,5.9-8.6,6.6-8.7,10.3 c-1.1-2.7,0-0.2-1.4-1.5c-1.3,2.2-13.8,11.1-19.7-0.8C990.3,783.6,1035.8,767.4,1051.2,762.6z"/>
      <path class="st6" d="M1035.4,813c0.4-17.7,14.7-35.8,21.9-45.9c1.5,0.6,5.1,2.5,6.5,3.3c-0.6,9.1-4.9,60.9-24,49.3 C1036.2,817.5,1037.4,816.4,1035.4,813z"/>
      <path class="st7" d="M1022.1,807.3c0.1-3.7,3.9-4.4,8.7-10.3l6.4-7.3c7.4-9,13.4-19.3,17.6-24.3l2.5,1.7 c-7.2,10.1-21.5,28.2-21.9,45.9C1028.9,815.1,1023.5,813.6,1022.1,807.3z"/>
    </g>
    <g>
      <path class="st24" d="M921.1,710.8c-1.4,0.9-5,2.7-6.5,3.3l-2.5,1.7l-3.6,2.8c-5.3,7.8-8.9,10.6-2.5,24.2 c2.4,5.2,11.2,14.2,15.2,18l8.6,8c1.7,1.7,2.4,1.8,4.3,3.7c1.3,1.3,2.9,2.6,4.8,3.8c17.6,10.9,32.1,23.4,21.6-14.2 c-3.7-13.2-9.8-34.2-17.4-44.2C938.2,711.6,932.3,706.7,921.1,710.8z"/>
      <path class="st6" d="M908.5,718.6l3.6-2.8c-4.2-5-10.2-15.3-17.6-24.3l-6.4-7.3c-4.9-5.9-8.6-6.6-8.7-10.3c-1.1,2.7,0,0.2-1.4,1.5 c-1.3-2.2-13.8-11.1-19.7,0.8C847.6,697.6,893.2,713.8,908.5,718.6z"/>
      <path class="st6" d="M892.8,668.2c0.4,17.7,14.7,35.8,21.9,45.9c1.5-0.6,5.1-2.5,6.5-3.3c-0.6-9.1-4.9-60.9-24-49.3 C893.5,663.6,894.8,664.7,892.8,668.2z"/>
      <path class="st7" d="M879.4,673.9c0.1,3.7,3.9,4.4,8.7,10.3l6.4,7.3c7.4,9,13.4,19.3,17.6,24.3l2.5-1.7 c-7.2-10.1-21.5-28.2-21.9-45.9C886.2,666,880.8,667.5,879.4,673.9z"/>
    </g>
    <g>
      <path class="st5" d="M964.5,723.5c-1.6,0.1-5.7,0.1-7.3-0.1l-3,0.3l-4.5,0.8c-8.3,4.4-12.8,5.2-13.6,20.2c-0.3,5.7,3.3,17.8,5,23 l3.8,11.1c0.8,2.3,1.3,2.7,2.1,5.3c0.5,1.7,1.3,3.6,2.5,5.6c10.5,17.9,17.5,35.7,25.7-2.4c2.9-13.4,7.3-34.8,5.3-47.2 C979.2,732.3,976.2,725.1,964.5,723.5z"/>
      <path class="st6" d="M949.7,724.5l4.5-0.8c-1.3-6.3-1.8-18.3-4.1-29.7l-2.3-9.4c-1.5-7.5-4.6-9.9-2.9-13.2 c-2.3,1.9-0.1,0.2-1.9,0.7c-0.1-2.5-7-16.3-17.8-8.5C905.8,677.4,938.4,713.1,949.7,724.5z"/>
      <path class="st6" d="M959.4,672.6c-7.9,15.8-3.8,38.5-2.1,50.8c1.6,0.2,5.7,0.2,7.3,0.1c3.8-8.3,24.2-56.1,1.9-54.8 C962.2,668.9,962.8,670.5,959.4,672.6z"/>
      <path class="st7" d="M944.9,671.4c-1.7,3.3,1.3,5.7,2.9,13.2l2.3,9.4c2.3,11.4,2.8,23.4,4.1,29.7l3-0.3c-1.7-12.3-5.8-35,2.1-50.8 C954.6,667.6,949.1,666.4,944.9,671.4z"/>
    </g>
    <g>
      <path class="st24" d="M1007.8,698.7c-1.6,0.3-5.7,0.6-7.2,0.6l-3,0.7l-4.4,1.2c-7.8,5.2-12.2,6.4-11.4,21.5 c0.3,5.7,5.1,17.3,7.3,22.4l4.9,10.6c1,2.2,1.5,2.6,2.6,5c0.7,1.7,1.7,3.5,3,5.3c12.3,16.7,21,33.7,25.3-5 c1.5-13.6,3.7-35.4,0.4-47.5C1023.3,705.9,1019.6,699.1,1007.8,698.7z"/>
      <path class="st6" d="M993.2,701.2l4.4-1.2c-2-6.2-3.7-18-7.2-29.1l-3.2-9.2c-2.3-7.3-5.5-9.4-4.2-12.8c-2,2.1-0.1,0.2-1.9,0.9 c-0.4-2.5-8.7-15.5-18.6-6.7C944.6,658.9,980.8,691,993.2,701.2z"/>
      <path class="st6" d="M997.5,648.6c-6.3,16.6,0.1,38.7,3.1,50.8c1.6,0,5.7-0.4,7.2-0.6c2.9-8.7,18.3-58.3-3.7-54.7 C999.9,644.6,1000.6,646.1,997.5,648.6z"/>
      <path class="st7" d="M983,648.9c-1.3,3.5,1.9,5.5,4.2,12.8l3.2,9.2c3.5,11.1,5.2,23,7.2,29.1l3-0.7c-2.9-12.1-9.3-34.2-3.1-50.8 C992.2,644.1,986.7,643.5,983,648.9z"/>
    </g>
    <g>
      <path class="st24" d="M1123.8,693c1.6,0,5.7-0.4,7.2-0.6l3,0.1l4.5,0.4c8.6,3.8,13.2,4.2,15,19.1c0.7,5.7-2,18-3.2,23.3l-3,11.3 c-0.6,2.3-1.1,2.8-1.7,5.4c-0.4,1.8-1,3.7-2,5.8c-9.1,18.6-14.7,36.9-25.8-0.5c-3.9-13.1-9.9-34.2-8.8-46.7 C1109.7,702.8,1112.2,695.5,1123.8,693z"/>
      <path class="st6" d="M1138.6,692.9l-4.5-0.4c0.9-6.4,0.5-18.4,1.9-29.9l1.6-9.6c1-7.6,3.8-10.2,1.9-13.4c2.4,1.7,0.1,0.1,2,0.5 c-0.1-2.5,5.8-16.7,17.1-9.8C1178.9,642.6,1149,680.6,1138.6,692.9z"/>
      <path class="st6" d="M1125.1,641.8c9.1,15.2,6.7,38.1,5.9,50.5c-1.6,0.3-5.6,0.6-7.2,0.6c-4.4-8-28.3-54.1-6-54.5 C1122,638.4,1121.5,640,1125.1,641.8z"/>
      <path class="st7" d="M1139.4,639.6c1.9,3.2-0.9,5.8-1.9,13.4l-1.6,9.6c-1.5,11.6-1.1,23.5-1.9,29.9l-3-0.1 c0.7-12.4,3.2-35.3-5.9-50.5C1129.5,636.5,1134.9,634.9,1139.4,639.6z"/>
    </g>
    <g>
      <path class="st5" d="M1104.7,738c-1.4,0.9-5,2.7-6.5,3.3l-2.5,1.7l-3.6,2.8c-5.3,7.8-8.9,10.6-2.5,24.2c2.4,5.2,11.2,14.2,15.2,18 l8.6,8c1.7,1.7,2.4,1.8,4.3,3.7c1.3,1.3,2.9,2.6,4.8,3.8c17.6,10.9,32.1,23.4,21.6-14.2c-3.7-13.2-9.8-34.2-17.4-44.2 C1121.9,738.9,1115.9,734,1104.7,738z"/>
      <path class="st6" d="M1092.1,745.8l3.6-2.8c-4.2-5-10.2-15.3-17.6-24.3l-6.4-7.3c-4.9-5.9-8.6-6.6-8.7-10.3 c-1.1,2.7,0,0.2-1.4,1.5c-1.3-2.2-13.8-11.1-19.7,0.8C1031.2,724.8,1076.8,741,1092.1,745.8z"/>
      <path class="st6" d="M1076.4,695.4c0.4,17.7,14.7,35.8,21.9,45.9c1.5-0.6,5.1-2.5,6.5-3.3c-0.6-9.1-4.9-60.9-24-49.3 C1077.1,690.9,1078.4,692,1076.4,695.4z"/>
      <path class="st7" d="M1063,701.2c0.1,3.7,3.9,4.4,8.7,10.3l6.4,7.3c7.4,9,13.4,19.3,17.6,24.3l2.5-1.7 c-7.2-10.1-21.5-28.2-21.9-45.9C1069.8,693.3,1064.4,694.8,1063,701.2z"/>
    </g>
    <g>
      <path class="st5" d="M1062.5,691.4c1.4,0.9,5,2.7,6.5,3.3l2.5,1.7l3.6,2.8c5.3,7.8,8.9,10.6,2.5,24.2c-2.4,5.2-11.2,14.2-15.2,18 l-8.6,8c-1.7,1.7-2.4,1.8-4.3,3.7c-1.3,1.3-2.9,2.6-4.8,3.8c-17.6,10.9-32.1,23.4-21.6-14.2c3.7-13.2,9.8-34.2,17.4-44.2 C1045.4,692.2,1051.3,687.3,1062.5,691.4z"/>
      <path class="st6" d="M1075.1,699.2l-3.6-2.8c4.2-5,10.2-15.3,17.6-24.3l6.4-7.3c4.9-5.9,8.6-6.6,8.7-10.3c1.1,2.7,0,0.2,1.4,1.5 c1.3-2.2,13.8-11.1,19.7,0.8C1136,678.2,1090.4,694.4,1075.1,699.2z"/>
      <path class="st6" d="M1090.9,648.8c-0.4,17.7-14.7,35.8-21.9,45.9c-1.5-0.6-5.1-2.5-6.5-3.3c0.6-9.1,4.9-60.9,24-49.3 C1090.1,644.2,1088.8,645.3,1090.9,648.8z"/>
      <path class="st7" d="M1104.2,654.5c-0.1,3.7-3.9,4.4-8.7,10.3l-6.4,7.3c-7.4,9-13.4,19.3-17.6,24.3l-2.5-1.7 c7.2-10.1,21.5-28.2,21.9-45.9C1097.4,646.6,1102.8,648.1,1104.2,654.5z"/>
    </g>
    <g>
      <path class="st5" d="M1184.5,715.7c1.4,0.9,5,2.7,6.5,3.3l2.5,1.7l3.6,2.8c5.3,7.8,8.9,10.6,2.5,24.2c-2.4,5.2-11.2,14.2-15.2,18 l-8.6,8c-1.7,1.7-2.4,1.8-4.3,3.7c-1.3,1.3-2.9,2.6-4.8,3.8c-17.6,10.9-32.1,23.4-21.6-14.2c3.7-13.2,9.8-34.2,17.4-44.2 C1167.4,716.6,1173.4,711.7,1184.5,715.7z"/>
      <path class="st6" d="M1197.1,723.5l-3.6-2.8c4.2-5,10.2-15.3,17.6-24.3l6.4-7.3c4.9-5.9,8.6-6.6,8.7-10.3c1.1,2.7,0,0.2,1.4,1.5 c1.3-2.2,13.8-11.1,19.7,0.8C1258,702.5,1212.5,718.7,1197.1,723.5z"/>
      <path class="st6" d="M1212.9,673.1c-0.4,17.7-14.7,35.8-21.9,45.9c-1.5-0.6-5.1-2.5-6.5-3.3c0.6-9.1,4.9-60.9,24-49.3 C1212.1,668.6,1210.8,669.7,1212.9,673.1z"/>
      <path class="st7" d="M1226.2,678.9c-0.1,3.7-3.9,4.4-8.7,10.3l-6.4,7.3c-7.4,9-13.4,19.3-17.6,24.3l-2.5-1.7 c7.2-10.1,21.5-28.2,21.9-45.9C1219.4,671,1224.8,672.5,1226.2,678.9z"/>
    </g>
    <g>
      <path class="st18" d="M926.9,819.1l-0.1,47.3c6.7,2.4,6.7-0.7,8.7,3.5l-9,1.5l0.1,10.7l272.8,0.6l0.5-11.7l-9.4-0.6 c5.7-9.8,11.3,16.4,8.9-51.2H926.9z"/>
      <g>
        <defs>
          <path id="SVGID_5_" d="M926.9,819.1l-0.1,47.3c6.7,2.4,6.7-0.7,8.7,3.5l-9,1.5l0.1,10.7l272.8,0.6l0.5-11.7l-9.4-0.6 c5.7-9.8,11.3,16.4,8.9-51.2H926.9z"/>
        </defs>
        <clipPath id="SVGID_6_">
          <path d="M 926.9 819.1 L 926.8 866.4 C 933.5 868.8 933.5 865.7 935.5 869.9 L 926.5 871.4 L 926.6 882.1 L 1199.4 882.7 L 1199.9 871 L 1190.5 870.4 C 1196.2 860.6 1201.8 886.8 1199.4 819.2 L 926.9 819.2 Z" style="overflow: visible;"/>
        </clipPath>
        <g class="st25">
          <path class="st20" d="M933.4,866.8l0,5.6h272.8c0.1-1.6,0.2-3.5,0.2-5.6H933.4z"/>
        </g>
      </g>
      <path class="st21" d="M926.7,763.3c-0.4,2.7,0.1,7.8,0.1,17.7c0,10.1-0.7,21.1,0.4,31l8,1.8l-0.1,5.6c6.6,1.5,9.8,1.1,16.6,1.1 c3.5-4.1,2.7,5.5,2.8-5.6h219.7l0,5.6l17-0.7l-0.2-6.5l8.1-0.6l0.3-49.3H926.7z"/>
      <g>
        <defs>
          <path id="SVGID_7_" d="M926.7,763.3c-0.4,2.7,0.1,7.8,0.1,17.7c0,10.1-0.7,21.1,0.4,31l8,1.8l-0.1,5.6c6.6,1.5,9.8,1.1,16.6,1.1 c3.5-4.1,2.7,5.5,2.8-5.6h219.7l0,5.6l17-0.7l-0.2-6.5l8.1-0.6l0.3-49.3H926.7z"/>
        </defs>
        <clipPath id="SVGID_8_">
          <path d="M 926.7 763.3 C 926.3 766 926.8 771.1 926.8 781 C 926.8 791.1 926.1 802.1 927.2 812 L 935.2 813.8 L 935.1 819.4 C 941.7 820.9 944.9 820.5 951.7 820.5 C 955.2 816.4 954.4 826 954.5 814.9 L 1174.2 814.9 L 1174.2 820.5 L 1191.2 819.8 L 1191 813.3 L 1199.1 812.7 L 1199.4 763.4 L 926.7 763.4 Z" style="overflow: visible;"/>
        </clipPath>
        <g class="st26">
          <rect x="868.2" y="806.6" class="st20" width="537.7" height="6.7"/>
        </g>
      </g>
      <path class="st23" d="M1172.7,763l17.2,0.3l0-17.4c-1.1-3.8-12-3.9-15-1.8C1171.1,746.8,1172.6,757.1,1172.7,763z"/>
      <polygon class="st23" points="935.7,762.7 953.2,763 952.8,743.9 936.7,743.4 &#9;&#9;"/>
    </g>
    <g>
      <g>
        <path class="st16" d="M156.5,1216.3c9.3-22.2,2.1-13.9-1.3-25.8c-0.7-2.3-0.8-1.4,0.2-3c4.6,0,1.8,1.2,8.8,10.5 c6.5-12.8,12.2-24.4,18.8-36.1c5.5-9.7,3-9.2-0.7-20.4c-1.3-4.1-6.8-16.8-4.9-19.7c4.3,0,1.3-1.8,3.2,2.4 c1.1,2.4,6.5,22.1,8.7,26c2.2-2,6.8-10.3,9-13.7c10.1-14.9,14.7-18.6,14.4-31c-0.2-5.5-2-16.8,0.6-20.7c3.6,0.5,2.5-0.5,2.9,3.6 l0.2,20.5c3.3-2.3,1.1-3.4,4.5-1.8c3.5,1.7,2.1,1.2,0.6,4.3c-0.7,1.4-13.7,17.9-15.4,23.3c4.7,0.3,9.6,0.2,14.3,0.2 c13.3,0.2,11.5-1.3,12.4,2.6c-2.9,3.1-23.6,0.9-29.4,1.2c-4.3,4.5-10.9,17.1-14.6,23.2c-4.6,7.5-9.4,16.3-13.1,24.3 c3.8-0.4,8.9-1.8,12.8-2.7c11.9-2.6,9.4-2.7,10.9,0c-4,6.8-23,2.3-27.5,9.5c-2,3.2-10.3,22.7-10.5,26.4 c12.9,3.2,23.3,4.9,34.5-4.4c5.3-4.4,7.9-9.1,11.3-15.7c5.3-10.2,6.8-15.8,14.2-21.8c7-5.7,16.4-8.2,22.1-13.8 c16.6-16.3-14.3-29.8,6.9-53.1c4.9-5.4,13.5-14,8.7-24.8c-3-6.7-11.4-12.7-20.1-15.9c-10.2-3.6-20.9-2.7-29,2.3 c-9.7,5.9-19.5,22-29.2,24.8c-5.3,1.5-11,0.5-15.6,2.3c-7.5,2.9-13.7,11.9-10.7,23.3c2.3,8.5,9.5,18.4,7.9,27.8 c-1.9,10.8-11.7,12.5-17.4,18.6C133.9,1180.3,137.7,1207.4,156.5,1216.3z"/>
        <path class="st6" d="M156.5,1216.3c-6.4,24.6-13.1,33.2-2.3,58c2.1-1,2-1.2,3.8-2.3c-3.9-10.4-6.2-12.8-4.3-27 c0.7-4.9,3.8-21.6,7.6-25.7c0.2-3.7,8.5-23.1,10.5-26.4c4.5-7.2,23.5-2.7,27.5-9.5c-1.5-2.7,1-2.6-10.9,0 c-3.9,0.9-8.9,2.3-12.8,2.7c3.7-8,8.5-16.8,13.1-24.3c3.7-6.1,10.3-18.7,14.6-23.2c5.8-0.3,26.5,1.9,29.4-1.2 c-0.9-3.8,0.9-2.3-12.4-2.6c-4.7-0.1-9.6,0.1-14.3-0.2c1.8-5.5,14.8-22,15.4-23.3c1.5-3.1,3-2.6-0.6-4.3 c-3.4-1.6-1.2-0.5-4.5,1.8l-0.2-20.5c-0.4-4.1,0.7-3.1-2.9-3.6c-2.6,3.9-0.7,15.2-0.6,20.7c0.4,12.4-4.3,16.1-14.4,31 c-2.3,3.3-6.8,11.6-9,13.7c-2.3-3.9-7.6-23.6-8.7-26c-1.9-4.2,1.1-2.4-3.2-2.4c-1.9,2.9,3.5,15.6,4.9,19.7 c3.6,11.2,6.2,10.7,0.7,20.4c-6.6,11.7-12.3,23.3-18.8,36.1c-6.9-9.3-4.1-10.5-8.8-10.5c-0.9,1.6-0.8,0.6-0.2,3 C158.5,1202.4,165.7,1194.1,156.5,1216.3z"/>
      </g>
      <g>
        <path class="st16" d="M156.5,1216.3c9.3-22.2,2.1-13.9-1.3-25.8c-0.7-2.3-0.8-1.4,0.2-3c4.6,0,1.8,1.2,8.8,10.5 c6.5-12.8,12.2-24.4,18.8-36.1c5.5-9.7,3-9.2-0.7-20.4c-1.3-4.1-6.8-16.8-4.9-19.7c4.3,0,1.3-1.8,3.2,2.4 c1.1,2.4,6.5,22.1,8.7,26c2.2-2,6.8-10.3,9-13.7c10.1-14.9,14.7-18.6,14.4-31c-0.2-5.5-2-16.8,0.6-20.7c3.6,0.5,2.5-0.5,2.9,3.6 l0.2,20.5c3.3-2.3,1.1-3.4,4.5-1.8c3.5,1.7,2.1,1.2,0.6,4.3c-0.7,1.4-13.7,17.9-15.4,23.3c4.7,0.3,9.6,0.2,14.3,0.2 c13.3,0.2,11.5-1.3,12.4,2.6c-2.9,3.1-23.6,0.9-29.4,1.2c-4.3,4.5-10.9,17.1-14.6,23.2c-4.6,7.5-9.4,16.3-13.1,24.3 c3.8-0.4,8.9-1.8,12.8-2.7c11.9-2.6,9.4-2.7,10.9,0c-4,6.8-23,2.3-27.5,9.5c-2,3.2-10.3,22.7-10.5,26.4 c12.9,3.2,23.3,4.9,34.5-4.4c5.3-4.4,7.9-9.1,11.3-15.7c5.3-10.2,6.8-15.8,14.2-21.8c7-5.7,16.4-8.2,22.1-13.8 c16.6-16.3-14.3-29.8,6.9-53.1c4.9-5.4,13.5-14,8.7-24.8c-3-6.7-11.4-12.7-20.1-15.9c-10.2-3.6-20.9-2.7-29,2.3 c-9.7,5.9-19.5,22-29.2,24.8c-5.3,1.5-11,0.5-15.6,2.3c-7.5,2.9-13.7,11.9-10.7,23.3c2.3,8.5,9.5,18.4,7.9,27.8 c-1.9,10.8-11.7,12.5-17.4,18.6C133.9,1180.3,137.7,1207.4,156.5,1216.3z"/>
        <path class="st6" d="M156.5,1216.3c-6.4,24.6-13.1,33.2-2.3,58c2.1-1,2-1.2,3.8-2.3c-3.9-10.4-6.2-12.8-4.3-27 c0.7-4.9,3.8-21.6,7.6-25.7c0.2-3.7,8.5-23.1,10.5-26.4c4.5-7.2,23.5-2.7,27.5-9.5c-1.5-2.7,1-2.6-10.9,0 c-3.9,0.9-8.9,2.3-12.8,2.7c3.7-8,8.5-16.8,13.1-24.3c3.7-6.1,10.3-18.7,14.6-23.2c5.8-0.3,26.5,1.9,29.4-1.2 c-0.9-3.8,0.9-2.3-12.4-2.6c-4.7-0.1-9.6,0.1-14.3-0.2c1.8-5.5,14.8-22,15.4-23.3c1.5-3.1,3-2.6-0.6-4.3 c-3.4-1.6-1.2-0.5-4.5,1.8l-0.2-20.5c-0.4-4.1,0.7-3.1-2.9-3.6c-2.6,3.9-0.7,15.2-0.6,20.7c0.4,12.4-4.3,16.1-14.4,31 c-2.3,3.3-6.8,11.6-9,13.7c-2.3-3.9-7.6-23.6-8.7-26c-1.9-4.2,1.1-2.4-3.2-2.4c-1.9,2.9,3.5,15.6,4.9,19.7 c3.6,11.2,6.2,10.7,0.7,20.4c-6.6,11.7-12.3,23.3-18.8,36.1c-6.9-9.3-4.1-10.5-8.8-10.5c-0.9,1.6-0.8,0.6-0.2,3 C158.5,1202.4,165.7,1194.1,156.5,1216.3z"/>
      </g>
      <g>
        <path class="st16" d="M156.5,1216.3c9.3-22.2,2.1-13.9-1.3-25.8c-0.7-2.3-0.8-1.4,0.2-3c4.6,0,1.8,1.2,8.8,10.5 c6.5-12.8,12.2-24.4,18.8-36.1c5.5-9.7,3-9.2-0.7-20.4c-1.3-4.1-6.8-16.8-4.9-19.7c4.3,0,1.3-1.8,3.2,2.4 c1.1,2.4,6.5,22.1,8.7,26c2.2-2,6.8-10.3,9-13.7c10.1-14.9,14.7-18.6,14.4-31c-0.2-5.5-2-16.8,0.6-20.7c3.6,0.5,2.5-0.5,2.9,3.6 l0.2,20.5c3.3-2.3,1.1-3.4,4.5-1.8c3.5,1.7,2.1,1.2,0.6,4.3c-0.7,1.4-13.7,17.9-15.4,23.3c4.7,0.3,9.6,0.2,14.3,0.2 c13.3,0.2,11.5-1.3,12.4,2.6c-2.9,3.1-23.6,0.9-29.4,1.2c-4.3,4.5-10.9,17.1-14.6,23.2c-4.6,7.5-9.4,16.3-13.1,24.3 c3.8-0.4,8.9-1.8,12.8-2.7c11.9-2.6,9.4-2.7,10.9,0c-4,6.8-23,2.3-27.5,9.5c-2,3.2-10.3,22.7-10.5,26.4 c12.9,3.2,23.3,4.9,34.5-4.4c5.3-4.4,7.9-9.1,11.3-15.7c5.3-10.2,6.8-15.8,14.2-21.8c7-5.7,16.4-8.2,22.1-13.8 c16.6-16.3-14.3-29.8,6.9-53.1c4.9-5.4,13.5-14,8.7-24.8c-3-6.7-11.4-12.7-20.1-15.9c-10.2-3.6-20.9-2.7-29,2.3 c-9.7,5.9-19.5,22-29.2,24.8c-5.3,1.5-11,0.5-15.6,2.3c-7.5,2.9-13.7,11.9-10.7,23.3c2.3,8.5,9.5,18.4,7.9,27.8 c-1.9,10.8-11.7,12.5-17.4,18.6C133.9,1180.3,137.7,1207.4,156.5,1216.3z"/>
        <path class="st6" d="M156.5,1216.3c-6.4,24.6-13.1,33.2-2.3,58c2.1-1,2-1.2,3.8-2.3c-3.9-10.4-6.2-12.8-4.3-27 c0.7-4.9,3.8-21.6,7.6-25.7c0.2-3.7,8.5-23.1,10.5-26.4c4.5-7.2,23.5-2.7,27.5-9.5c-1.5-2.7,1-2.6-10.9,0 c-3.9,0.9-8.9,2.3-12.8,2.7c3.7-8,8.5-16.8,13.1-24.3c3.7-6.1,10.3-18.7,14.6-23.2c5.8-0.3,26.5,1.9,29.4-1.2 c-0.9-3.8,0.9-2.3-12.4-2.6c-4.7-0.1-9.6,0.1-14.3-0.2c1.8-5.5,14.8-22,15.4-23.3c1.5-3.1,3-2.6-0.6-4.3 c-3.4-1.6-1.2-0.5-4.5,1.8l-0.2-20.5c-0.4-4.1,0.7-3.1-2.9-3.6c-2.6,3.9-0.7,15.2-0.6,20.7c0.4,12.4-4.3,16.1-14.4,31 c-2.3,3.3-6.8,11.6-9,13.7c-2.3-3.9-7.6-23.6-8.7-26c-1.9-4.2,1.1-2.4-3.2-2.4c-1.9,2.9,3.5,15.6,4.9,19.7 c3.6,11.2,6.2,10.7,0.7,20.4c-6.6,11.7-12.3,23.3-18.8,36.1c-6.9-9.3-4.1-10.5-8.8-10.5c-0.9,1.6-0.8,0.6-0.2,3 C158.5,1202.4,165.7,1194.1,156.5,1216.3z"/>
      </g>
      <g>
        <path class="st16" d="M306.9,1115.4c-9.3-22.2-2.1-13.9,1.3-25.8c0.7-2.3,0.8-1.4-0.2-3c-4.6,0-1.8,1.2-8.8,10.5 c-6.5-12.8-12.2-24.4-18.8-36.1c-5.5-9.7-3-9.2,0.7-20.5c1.3-4.1,6.8-16.8,4.9-19.7c-4.3,0-1.3-1.8-3.2,2.4 c-1.1,2.4-6.5,22.1-8.7,26c-2.2-2-6.8-10.3-9-13.7c-10.1-14.9-14.7-18.6-14.4-31c0.2-5.5,2-16.8-0.6-20.7 c-3.6,0.5-2.5-0.5-2.9,3.6l-0.2,20.5c-3.3-2.3-1.1-3.4-4.5-1.8c-3.5,1.7-2.1,1.2-0.6,4.3c0.7,1.4,13.7,17.9,15.4,23.3 c-4.7,0.3-9.6,0.2-14.3,0.2c-13.3,0.2-11.5-1.3-12.4,2.5c2.9,3.1,23.6,0.9,29.4,1.2c4.3,4.5,10.9,17.1,14.6,23.2 c4.6,7.5,9.4,16.3,13.1,24.3c-3.8-0.4-8.9-1.8-12.8-2.7c-11.9-2.6-9.4-2.7-10.9,0c4,6.8,23,2.3,27.5,9.5 c2,3.2,10.3,22.7,10.5,26.4c-12.9,3.2-23.3,4.9-34.5-4.4c-5.3-4.4-7.9-9.1-11.3-15.7c-5.3-10.2-6.8-15.8-14.2-21.8 c-7-5.7-16.4-8.2-22.1-13.8c-16.6-16.3,14.4-29.8-6.9-53.1c-4.9-5.4-13.5-14-8.7-24.8c3-6.7,11.3-12.7,20.1-15.9 c10.2-3.6,20.9-2.7,29,2.3c9.7,5.9,19.5,22,29.2,24.8c5.3,1.5,11,0.5,15.6,2.3c7.5,2.9,13.7,11.9,10.7,23.3 c-2.3,8.5-9.5,18.4-7.9,27.8c1.9,10.8,11.7,12.5,17.4,18.6C329.4,1079.3,325.6,1106.4,306.9,1115.4z"/>
        <path class="st6" d="M306.9,1115.4c6.4,24.6,13.1,33.2,2.3,58c-2.1-1-2-1.2-3.8-2.3c3.9-10.4,6.2-12.8,4.3-27 c-0.7-4.9-3.8-21.6-7.6-25.7c-0.2-3.7-8.5-23.1-10.5-26.4c-4.5-7.2-23.5-2.7-27.5-9.5c1.5-2.7-1-2.6,10.9,0 c3.9,0.9,8.9,2.3,12.8,2.7c-3.7-8-8.5-16.8-13.1-24.3c-3.7-6.1-10.3-18.7-14.6-23.2c-5.8-0.3-26.5,1.9-29.4-1.2 c1-3.8-0.9-2.3,12.4-2.5c4.7-0.1,9.6,0.1,14.3-0.2c-1.8-5.5-14.8-22-15.4-23.3c-1.5-3.1-3-2.6,0.6-4.3c3.4-1.6,1.2-0.5,4.5,1.8 l0.2-20.5c0.4-4.1-0.7-3.1,2.9-3.6c2.6,3.9,0.7,15.2,0.6,20.7c-0.4,12.4,4.3,16.1,14.4,31c2.3,3.3,6.8,11.6,9,13.7 c2.3-3.9,7.6-23.6,8.7-26c1.9-4.2-1.1-2.4,3.2-2.4c1.9,2.9-3.5,15.6-4.9,19.7c-3.6,11.2-6.2,10.7-0.7,20.5 c6.6,11.7,12.3,23.3,18.8,36.1c6.9-9.3,4.1-10.5,8.8-10.5c0.9,1.6,0.8,0.6,0.2,3C304.8,1101.5,297.6,1093.1,306.9,1115.4z"/>
      </g>
      <g>
        <path class="st27" d="M145.9,1125.6c9.3-22.2,2.1-13.9-1.3-25.8c-0.7-2.3-0.8-1.4,0.2-3c4.6,0,1.8,1.2,8.8,10.5 c6.5-12.8,12.2-24.4,18.8-36.1c5.5-9.7,3-9.2-0.7-20.4c-1.3-4.1-6.8-16.8-4.9-19.7c4.3,0,1.3-1.8,3.2,2.4 c1.1,2.4,6.5,22.1,8.7,26c2.2-2,6.8-10.3,9-13.7c10.1-14.9,14.7-18.6,14.4-31c-0.2-5.5-2-16.8,0.6-20.7c3.6,0.5,2.5-0.5,2.9,3.6 l0.2,20.5c3.3-2.3,1.1-3.4,4.5-1.8c3.5,1.7,2.1,1.2,0.6,4.3c-0.7,1.4-13.7,17.9-15.4,23.3c4.7,0.3,9.6,0.2,14.3,0.2 c13.3,0.2,11.5-1.3,12.4,2.5c-2.9,3.1-23.6,0.9-29.4,1.2c-4.3,4.4-10.9,17.1-14.6,23.2c-4.6,7.5-9.4,16.3-13.1,24.3 c3.8-0.4,8.9-1.8,12.8-2.7c11.9-2.6,9.4-2.7,10.9,0c-4,6.8-23,2.3-27.5,9.5c-2,3.2-10.3,22.7-10.5,26.4 c12.9,3.2,23.3,4.9,34.5-4.4c5.3-4.4,7.9-9.1,11.3-15.7c5.3-10.2,6.8-15.8,14.2-21.8c7-5.7,16.4-8.2,22.1-13.8 c16.6-16.3-14.4-29.8,6.9-53.1c4.9-5.4,13.5-14,8.7-24.8c-3-6.7-11.4-12.7-20.1-15.9c-10.2-3.6-20.9-2.7-29,2.3 c-9.7,5.9-19.5,22-29.2,24.8c-5.3,1.5-11,0.5-15.7,2.3c-7.5,2.9-13.7,11.9-10.7,23.3c2.3,8.5,9.5,18.4,7.9,27.8 c-1.9,10.8-11.7,12.6-17.4,18.6C123.3,1089.6,127.1,1116.7,145.9,1125.6z"/>
        <path class="st6" d="M145.9,1125.6c-6.4,24.6-13.1,33.2-2.3,58c2.1-1,2-1.2,3.8-2.3c-3.9-10.4-6.2-12.8-4.3-27 c0.7-4.9,3.8-21.6,7.6-25.7c0.2-3.7,8.5-23.1,10.5-26.4c4.5-7.2,23.5-2.7,27.5-9.5c-1.5-2.7,1-2.6-10.9,0 c-3.9,0.9-9,2.3-12.8,2.7c3.7-8,8.5-16.8,13.1-24.3c3.7-6,10.3-18.7,14.6-23.2c5.8-0.3,26.5,1.8,29.4-1.2 c-1-3.8,0.9-2.3-12.4-2.5c-4.7-0.1-9.6,0.1-14.3-0.2c1.8-5.5,14.8-22,15.4-23.3c1.5-3.1,3-2.6-0.6-4.3c-3.4-1.6-1.2-0.5-4.5,1.8 l-0.2-20.5c-0.4-4.1,0.7-3.1-2.9-3.6c-2.6,3.9-0.7,15.2-0.6,20.7c0.4,12.4-4.3,16.1-14.4,31c-2.3,3.3-6.8,11.6-9,13.7 c-2.3-3.9-7.6-23.6-8.7-26c-1.9-4.2,1.1-2.4-3.2-2.4c-1.9,2.9,3.5,15.6,4.9,19.7c3.6,11.2,6.2,10.7,0.7,20.4 c-6.6,11.7-12.3,23.3-18.8,36.1c-6.9-9.3-4.1-10.5-8.8-10.5c-0.9,1.6-0.8,0.6-0.2,3C148,1111.7,155.1,1103.3,145.9,1125.6z"/>
      </g>
      <g>
        <path class="st16" d="M156,1208c-9.3-22.2-2.1-13.9,1.3-25.8c0.7-2.3,0.8-1.4-0.2-3c-4.6,0-1.8,1.2-8.8,10.5 c-6.5-12.8-12.2-24.4-18.8-36.1c-5.5-9.7-3-9.2,0.7-20.4c1.3-4.1,6.8-16.8,4.9-19.7c-4.3,0-1.3-1.8-3.2,2.4 c-1.1,2.4-6.5,22.1-8.7,26c-2.2-2-6.8-10.3-9-13.7c-10.1-14.9-14.7-18.6-14.4-31c0.2-5.5,2-16.8-0.6-20.7 c-3.6,0.5-2.5-0.5-2.9,3.6l-0.2,20.5c-3.3-2.3-1.1-3.4-4.5-1.8c-3.5,1.7-2.1,1.2-0.6,4.3c0.7,1.4,13.7,17.9,15.4,23.3 c-4.7,0.3-9.6,0.2-14.3,0.2c-13.3,0.2-11.5-1.3-12.4,2.5c2.9,3.1,23.6,0.9,29.4,1.2c4.3,4.5,10.9,17.1,14.6,23.2 c4.6,7.5,9.4,16.3,13.1,24.3c-3.8-0.4-8.9-1.8-12.8-2.7c-11.9-2.6-9.4-2.7-10.9,0c4,6.8,23,2.3,27.5,9.5 c2,3.2,10.3,22.7,10.5,26.4c-12.9,3.2-23.3,4.9-34.5-4.4c-5.3-4.4-7.9-9.1-11.3-15.7c-5.3-10.2-6.8-15.8-14.2-21.8 c-7-5.7-16.4-8.2-22.1-13.8c-16.6-16.3,14.4-29.8-6.9-53.1c-4.9-5.4-13.5-14-8.7-24.8c3-6.7,11.4-12.7,20.1-15.9 c10.2-3.6,20.9-2.7,29,2.3c9.7,5.9,19.5,22,29.2,24.8c5.3,1.5,11,0.5,15.6,2.3c7.5,2.9,13.7,11.9,10.7,23.3 c-2.3,8.5-9.5,18.4-7.9,27.8c1.9,10.8,11.7,12.6,17.4,18.6C178.5,1172,174.7,1199.1,156,1208z"/>
        <path class="st6" d="M156,1208c6.4,24.6,13.1,33.2,2.3,58c-2.1-1-2-1.2-3.8-2.3c3.9-10.4,6.2-12.8,4.3-27 c-0.7-4.9-3.8-21.6-7.6-25.7c-0.2-3.7-8.5-23.1-10.5-26.4c-4.5-7.2-23.5-2.7-27.5-9.5c1.5-2.7-1-2.6,10.9,0 c3.9,0.9,8.9,2.3,12.8,2.7c-3.7-8-8.5-16.8-13.1-24.3c-3.7-6.1-10.3-18.7-14.6-23.2c-5.8-0.3-26.5,1.9-29.4-1.2 c1-3.8-0.9-2.3,12.4-2.5c4.7-0.1,9.6,0.1,14.3-0.2c-1.8-5.5-14.8-22-15.4-23.3c-1.5-3.1-3-2.6,0.6-4.3c3.4-1.6,1.2-0.5,4.5,1.8 l0.2-20.5c0.4-4.1-0.7-3.1,2.9-3.6c2.6,3.9,0.7,15.2,0.6,20.7c-0.4,12.4,4.3,16.1,14.4,31c2.3,3.3,6.8,11.6,9,13.7 c2.3-3.9,7.6-23.6,8.7-26c1.9-4.2-1.1-2.4,3.2-2.4c1.9,2.9-3.5,15.6-4.9,19.7c-3.6,11.2-6.2,10.7-0.7,20.4 c6.6,11.7,12.3,23.3,18.8,36.1c6.9-9.3,4.1-10.5,8.8-10.5c0.9,1.6,0.8,0.6,0.2,3C153.9,1194.1,146.7,1185.8,156,1208z"/>
      </g>
      <g>
        <path class="st27" d="M67.9,1135.5c9.3-22.2,2.1-13.9-1.3-25.8c-0.7-2.3-0.8-1.4,0.2-3c4.6,0,1.8,1.2,8.8,10.5 c6.5-12.8,12.2-24.4,18.8-36.1c5.5-9.7,3-9.2-0.7-20.4c-1.3-4.1-6.8-16.8-4.9-19.7c4.3,0,1.3-1.8,3.2,2.4 c1.1,2.4,6.5,22.1,8.7,26c2.2-2.1,6.8-10.3,9-13.7c10.1-14.9,14.7-18.6,14.4-31c-0.2-5.5-2-16.8,0.6-20.7 c3.6,0.5,2.5-0.5,2.9,3.6l0.2,20.5c3.3-2.3,1.1-3.4,4.5-1.8c3.5,1.7,2.1,1.2,0.6,4.3c-0.7,1.4-13.7,17.9-15.4,23.3 c4.7,0.3,9.6,0.2,14.3,0.2c13.3,0.2,11.5-1.3,12.4,2.5c-2.9,3.1-23.6,0.9-29.4,1.2c-4.3,4.4-10.9,17.1-14.6,23.2 c-4.6,7.5-9.4,16.3-13.1,24.3c3.8-0.4,8.9-1.8,12.8-2.7c11.9-2.6,9.4-2.7,10.9,0c-4,6.8-23,2.3-27.5,9.5 c-2,3.2-10.3,22.7-10.5,26.4c12.9,3.2,23.3,4.9,34.5-4.4c5.3-4.4,7.9-9.1,11.3-15.7c5.3-10.2,6.8-15.8,14.2-21.8 c7-5.7,16.4-8.2,22.1-13.8c16.6-16.3-14.4-29.8,6.9-53.1c4.9-5.4,13.5-14,8.7-24.8c-3-6.7-11.4-12.7-20.1-15.9 c-10.2-3.6-20.9-2.7-29,2.3c-9.7,5.9-19.5,22-29.2,24.8c-5.3,1.5-11,0.5-15.7,2.3c-7.5,2.9-13.7,11.9-10.7,23.3 c2.3,8.5,9.5,18.4,7.9,27.8c-1.9,10.8-11.7,12.6-17.4,18.6C45.3,1099.5,49.1,1126.6,67.9,1135.5z"/>
        <path class="st6" d="M67.9,1135.5c-6.4,24.6-13.1,33.2-2.3,58c2.1-1,2-1.2,3.8-2.3c-3.9-10.4-6.2-12.8-4.3-27 c0.7-4.9,3.8-21.6,7.6-25.7c0.2-3.7,8.5-23.1,10.5-26.4c4.5-7.2,23.5-2.7,27.5-9.5c-1.5-2.7,1-2.6-10.9,0 c-3.9,0.9-8.9,2.3-12.8,2.7c3.7-8,8.5-16.8,13.1-24.3c3.7-6.1,10.3-18.7,14.6-23.2c5.8-0.3,26.5,1.9,29.4-1.2 c-1-3.8,0.9-2.3-12.4-2.5c-4.7-0.1-9.6,0-14.3-0.2c1.8-5.5,14.8-22,15.4-23.3c1.5-3.1,3-2.6-0.6-4.3c-3.4-1.6-1.2-0.5-4.5,1.8 l-0.2-20.5c-0.4-4.1,0.7-3.1-2.9-3.6c-2.6,3.9-0.7,15.2-0.6,20.7c0.4,12.4-4.3,16.1-14.4,31c-2.3,3.3-6.8,11.6-9,13.7 c-2.3-3.9-7.6-23.6-8.7-26c-1.9-4.2,1.1-2.4-3.2-2.4c-1.9,2.9,3.5,15.6,4.9,19.7c3.6,11.2,6.2,10.7,0.7,20.4 c-6.6,11.7-12.3,23.3-18.8,36.1c-6.9-9.3-4.1-10.5-8.8-10.5c-0.9,1.6-0.8,0.6-0.2,3C69.9,1121.7,77.1,1113.3,67.9,1135.5z"/>
      </g>
      <g>
        <path class="st27" d="M309.5,1195.5c-9.3-22.2-2.1-13.9,1.3-25.8c0.7-2.3,0.8-1.4-0.2-3c-4.6,0-1.8,1.2-8.8,10.5 c-6.5-12.8-12.2-24.4-18.8-36.1c-5.5-9.7-3-9.2,0.7-20.4c1.3-4.1,6.8-16.8,4.9-19.7c-4.3,0-1.3-1.8-3.2,2.4 c-1.1,2.4-6.5,22.1-8.7,26c-2.2-2.1-6.8-10.3-9-13.7c-10.1-14.9-14.7-18.6-14.4-31c0.2-5.5,2-16.8-0.6-20.7 c-3.6,0.5-2.5-0.5-2.9,3.6l-0.2,20.5c-3.3-2.3-1.1-3.4-4.5-1.8c-3.5,1.7-2.1,1.2-0.6,4.3c0.7,1.4,13.7,17.9,15.4,23.3 c-4.7,0.3-9.6,0.2-14.3,0.2c-13.3,0.2-11.5-1.3-12.4,2.5c2.9,3.1,23.6,0.9,29.4,1.2c4.3,4.5,10.9,17.1,14.6,23.2 c4.6,7.5,9.4,16.3,13.1,24.3c-3.8-0.4-8.9-1.8-12.8-2.7c-11.9-2.6-9.4-2.7-10.9,0c4,6.8,23,2.3,27.5,9.5 c2,3.2,10.3,22.7,10.5,26.4c-12.9,3.2-23.3,4.9-34.5-4.4c-5.3-4.4-7.9-9.1-11.3-15.7c-5.3-10.2-6.8-15.8-14.2-21.8 c-7-5.7-16.4-8.2-22.1-13.8c-16.6-16.3,14.4-29.8-6.9-53.1c-4.9-5.4-13.5-14-8.7-24.8c3-6.7,11.4-12.7,20.1-15.9 c10.2-3.7,20.9-2.7,29,2.3c9.7,5.9,19.5,22,29.2,24.8c5.3,1.5,11,0.5,15.7,2.3c7.5,2.9,13.7,11.9,10.7,23.3 c-2.3,8.5-9.5,18.4-7.9,27.8c1.9,10.8,11.7,12.5,17.4,18.6C332.1,1159.5,328.3,1186.6,309.5,1195.5z"/>
        <path class="st6" d="M309.5,1195.5c6.4,24.6,13.1,33.2,2.3,58c-2.1-1-2-1.2-3.8-2.3c3.9-10.4,6.2-12.8,4.3-27 c-0.7-4.9-3.8-21.6-7.6-25.7c-0.2-3.7-8.5-23.1-10.5-26.4c-4.5-7.2-23.5-2.7-27.5-9.5c1.5-2.7-1-2.6,10.9,0 c3.9,0.9,8.9,2.3,12.8,2.7c-3.7-8-8.5-16.8-13.1-24.3c-3.7-6.1-10.3-18.7-14.6-23.2c-5.8-0.3-26.5,1.8-29.4-1.2 c1-3.8-0.9-2.3,12.4-2.5c4.7-0.1,9.6,0.1,14.3-0.2c-1.8-5.5-14.8-22-15.4-23.3c-1.5-3.1-3-2.6,0.6-4.3c3.4-1.6,1.2-0.5,4.5,1.8 l0.2-20.5c0.4-4.1-0.7-3.1,2.9-3.6c2.6,3.9,0.7,15.2,0.6,20.7c-0.4,12.4,4.3,16.1,14.4,31c2.3,3.3,6.8,11.6,9,13.7 c2.3-3.9,7.6-23.6,8.7-26c1.9-4.2-1.1-2.4,3.2-2.4c1.9,2.9-3.5,15.6-4.9,19.7c-3.6,11.2-6.2,10.7-0.7,20.4 c6.6,11.7,12.3,23.3,18.8,36.1c6.9-9.3,4.1-10.5,8.8-10.5c0.9,1.6,0.8,0.6,0.2,3C307.5,1181.7,300.3,1173.3,309.5,1195.5z"/>
      </g>
      <g>
        <path class="st16" d="M137.9,1185.5c-2.8-23.9-5-13.1-13.7-21.9c-1.7-1.7-1.4-0.9-1.3-2.7c4-2.2,2.2,0.2,12.8,4.9 c-0.6-14.4-1.3-27.3-1.2-40.7c0.1-11.2-1.9-9.5-10.6-17.5c-3.2-2.9-14.1-11.4-13.9-14.9c3.8-2.1,0.2-2.3,4,0.5 c2.1,1.6,16.4,16.1,20.3,18.4c1-2.9,0.9-12.3,1.2-16.4c1.5-17.9,3.8-23.4-2.6-34.1c-2.8-4.8-10-13.6-9.6-18.4 c3.4-1.3,1.9-1.7,4.3,1.7l10.2,17.8c1.7-3.6-0.7-3.5,3.1-3.8c3.9-0.3,2.4,0.1,2.6,3.5c0.1,1.5-3.2,22.3-2.1,27.9 c4.2-2,8.4-4.5,12.6-6.8c11.7-6.3,9.4-6.7,12.1-3.8c-1,4.1-20.1,12.3-25.1,15.4c-1.6,6-1.1,20.3-1.4,27.3 c-0.3,8.8-0.2,18.8,0.4,27.5c3.2-2.2,6.9-5.9,9.8-8.6c9.1-8.1,6.9-6.9,9.5-5.3c-0.2,7.9-19,13.2-19.4,21.7 c-0.2,3.8,2.1,24.8,3.7,28.1c12.8-3.5,22.7-7.1,27.9-20.7c2.5-6.4,2.4-11.8,2.2-19.2c-0.4-11.5-1.7-17.1,1.8-25.9 c3.4-8.4,10.3-15.2,12.6-22.9c6.6-22.4-27.1-19-19.9-49.7c1.7-7.1,4.9-18.8-4.5-25.9c-5.9-4.4-16.1-5.6-25.3-4 c-10.7,1.8-19.5,7.9-24.2,16.2c-5.6,9.8-6.3,28.7-13.4,35.9c-3.9,3.9-9.4,5.8-12.5,9.7c-5.1,6.2-6.2,17.1,2.1,25.5 c6.2,6.3,17.2,11.4,20.4,20.4c3.7,10.3-4.1,16.7-6.1,24.7C100.6,1165.1,117.1,1186.9,137.9,1185.5z"/>
        <path class="st6" d="M137.9,1185.5c6.5,24.6,4.7,35.4,26.3,51.7c1.3-1.9,1.2-2,2.2-3.9c-8.5-7.1-11.7-8.1-16.9-21.5 c-1.8-4.6-7.2-20.8-5.9-26.1c-1.6-3.3-3.9-24.3-3.7-28.1c0.4-8.5,19.2-13.9,19.4-21.7c-2.6-1.6-0.4-2.8-9.5,5.3 c-3,2.7-6.7,6.4-9.8,8.6c-0.7-8.8-0.8-18.8-0.4-27.5c0.3-7.1-0.1-21.4,1.4-27.3c4.9-3.1,24-11.3,25.1-15.4 c-2.7-2.9-0.4-2.5-12.1,3.8c-4.1,2.2-8.4,4.7-12.6,6.8c-1.1-5.6,2.2-26.4,2.1-27.9c-0.2-3.4,1.3-3.7-2.6-3.5 c-3.8,0.3-1.3,0.2-3.1,3.8l-10.2-17.8c-2.4-3.4-0.9-3.1-4.3-1.7c-0.3,4.7,6.8,13.6,9.6,18.4c6.4,10.7,4.2,16.2,2.6,34.1 c-0.3,4-0.3,13.5-1.2,16.4c-3.9-2.3-18.2-16.9-20.3-18.4c-3.7-2.7-0.2-2.6-4-0.5c-0.3,3.5,10.7,11.9,13.9,14.9 c8.6,8,10.6,6.4,10.6,17.5c-0.1,13.4,0.6,26.3,1.2,40.7c-10.6-4.7-8.7-7.1-12.8-4.9c-0.1,1.8-0.4,1,1.3,2.7 C132.9,1172.4,135.1,1161.6,137.9,1185.5z"/>
      </g>
      <g>
        <path class="st18" d="M47.2,1215.9l-0.1,47.3c6.7,2.4,6.7-0.7,8.7,3.5l-9,1.5l0.1,10.7l272.8,0.6l0.5-11.7l-9.4-0.6 c5.7-9.8,11.3,16.4,8.9-51.2H47.2z"/>
        <g>
          <defs>
            <path id="SVGID_9_" d="M47.2,1215.9l-0.1,47.3c6.7,2.4,6.7-0.7,8.7,3.5l-9,1.5l0.1,10.7l272.8,0.6l0.5-11.7l-9.4-0.6 c5.7-9.8,11.3,16.4,8.9-51.2H47.2z"/>
          </defs>
          <clipPath id="SVGID_10_">
            <path d="M 47.2 1215.9 L 47.1 1263.2 C 53.8 1265.6 53.8 1262.5 55.8 1266.7 L 46.8 1268.2 L 46.9 1278.9 L 319.7 1279.5 L 320.2 1267.8 L 310.8 1267.2 C 316.5 1257.4 322.1 1283.6 319.7 1216 L 47.2 1216 Z" style="overflow: visible;"/>
          </clipPath>
          <g class="st28">
            <path class="st20" d="M53.8,1263.6l0,5.6h272.8c0.1-1.6,0.2-3.5,0.2-5.6H53.8z"/>
          </g>
        </g>
        <path class="st21" d="M47,1160.2c-0.4,2.7,0.1,7.8,0.1,17.7c0,10.1-0.7,21.1,0.4,31l8,1.8l-0.1,5.6c6.6,1.5,9.8,1.1,16.6,1.1 c3.5-4.1,2.7,5.5,2.8-5.6h219.7l0,5.6l17-0.7l-0.2-6.5l8.1-0.6l0.3-49.3H47z"/>
        <g>
          <defs>
            <path id="SVGID_11_" d="M47,1160.2c-0.4,2.7,0.1,7.8,0.1,17.7c0,10.1-0.7,21.1,0.4,31l8,1.8l-0.1,5.6c6.6,1.5,9.8,1.1,16.6,1.1 c3.5-4.1,2.7,5.5,2.8-5.6h219.7l0,5.6l17-0.7l-0.2-6.5l8.1-0.6l0.3-49.3H47z"/>
          </defs>
          <clipPath id="SVGID_12_">
            <path d="M 47 1160.2 C 46.6 1162.9 47.1 1168 47.1 1177.9 C 47.1 1188 46.4 1199 47.5 1208.9 L 55.5 1210.7 L 55.4 1216.3 C 62 1217.8 65.2 1217.4 72 1217.4 C 75.5 1213.3 74.7 1222.9 74.8 1211.8 L 294.5 1211.8 L 294.5 1217.4 L 311.5 1216.7 L 311.3 1210.2 L 319.4 1209.6 L 319.7 1160.3 L 47 1160.3 Z" style="overflow: visible;"/>
          </clipPath>
          <g class="st29">
            <rect x="-11.5" y="1203.5" class="st20" width="537.7" height="6.7"/>
          </g>
        </g>
        <path class="st23" d="M293.1,1159.9l17.2,0.3l0-17.4c-1.2-3.8-12-3.9-15-1.8C291.5,1143.7,293,1154,293.1,1159.9z"/>
        <polygon class="st23" points="56.1,1159.6 73.5,1159.9 73.2,1140.8 57.1,1140.3 &#9;&#9;&#9;"/>
      </g>
    </g>
    <g>
      <path class="st30" d="M868.1,824.7c4,11.3,22.6,38.1,31.6,46.4c6.3,5.9,13.4,11.1,19.7,12.8c21.4,5.6,47.3-26.5,11.2-49.6 c-6.9-4.4-12.8-5.4-19.8-12.3c-5.5-5.3-12.5-13-18.5-16.9l-10.2,2.9c-1.4,2.9-1.9,6-2.2,8.6c-1.8,0.4-7.7,0.6-8.4,1.1 C869.9,818.7,869.9,822,868.1,824.7z"/>
      <path class="st6" d="M868.1,824.7c1.9-2.7,1.9-6.1,3.3-7c0.7-0.4,6.6-0.6,8.4-1.1c0.3-2.6,0.8-5.8,2.2-8.6l10.2-2.9 c-3.2-3.2-5.4-4-9-4.8c-3.9-0.9-6.3,0.5-10.8,1.8c-2.4-3.8-5-8.6-8.4-10.8l-1.8,2.5c2.8,3,4.8,5.8,7.1,9.7 c0.2,1.8,0.3,0.7-0.9,2.4c-0.6,0.9-1.1,1.4-1.5,2.2C864.5,813.1,865.3,819.6,868.1,824.7z"/>
    </g>
    <g>
      <rect x="262.3" y="632.9" class="st31" width="155.5" height="252.3"/>
      <rect x="262.3" y="632.9" class="st10" width="155.5" height="15.1"/>
      <rect x="262.3" y="632.9" class="st10" width="19.8" height="252.3"/>
      <rect x="262.3" y="870.1" class="st10" width="155.5" height="15.1"/>
      <rect x="398" y="632.9" class="st10" width="19.8" height="252.3"/>
      <rect x="263.9" y="816" class="st9" width="155.5" height="15.1"/>
      <rect x="262.3" y="756" class="st9" width="155.5" height="15.1"/>
      <path class="st32" d="M300.6,715.7c-10.5,1.9-22.3,11.3-18.3,23.9c3.2,10.2,17.6,14.9,30.7,12.1 C345.2,744.9,331,710.1,300.6,715.7L300.6,715.7z M304.1,728.6c8.7-4.1,14.5,5,7.3,7.3C303.5,738.5,295.3,732.8,304.1,728.6z"/>
      <path class="st32" d="M354.8,718c-10.5,1.9-22.3,11.3-18.3,23.9c3.2,10.2,17.6,14.9,30.7,12.1C399.4,747.1,385.3,712.4,354.8,718 L354.8,718z M358.3,730.9c8.7-4.1,14.5,5,7.3,7.3C357.7,740.8,349.5,735.1,358.3,730.9z"/>
      <path class="st32" d="M331,681.5c-10.5,1.9-22.3,11.3-18.3,23.9c3.2,10.2,17.6,14.9,30.7,12.1C375.6,710.6,361.5,675.9,331,681.5 L331,681.5z M334.5,694.4c8.7-4.1,14.5,5,7.3,7.3C333.9,704.3,325.7,698.6,334.5,694.4z"/>
      <path class="st33" d="M317.5,773.9c-2.8,0.7-2.2,0.6-4.5,1.6c-2,0.9-0.1,1.6-3.5,0.1c-3.7-1.6-4.9-2.2-10.3-1.9 c-19.7,1.3-21,31.2,5.2,36.9c15,3.3,28.2-3.4,32.4-13.9c3.6-9.1,0.5-20.2-9.1-22.5C324.6,773.5,320.5,773.2,317.5,773.9 L317.5,773.9z M296.7,798.3c-6.3-6.9-5-16.9,7.5-16.5c-1.1,2.4-3.3,4.1-5,7.6C297.4,793.1,297.8,794.9,296.7,798.3L296.7,798.3z M325.5,799c-1.5-16.3-5-11.8-7.8-18.5C332.7,778.9,331.2,794,325.5,799L325.5,799z M318.1,803.1c-14.4,3-14.4,0.8-14-4.6 c0.4-6,3.8-11.6,6.8-13.9C316.6,786.7,319.4,794.4,318.1,803.1z"/>
      <path class="st20" d="M370.9,772.7c-2.8,0.7-2.2,0.6-4.5,1.6c-2,0.9-0.1,1.6-3.5,0.1c-3.7-1.6-4.9-2.2-10.3-1.9 c-19.7,1.3-21,31.2,5.2,36.9c15,3.3,28.2-3.4,32.4-13.9c3.6-9.1,0.5-20.2-9.1-22.5C378,772.3,373.9,772,370.9,772.7L370.9,772.7z M350.1,797.1c-6.3-6.9-5-16.9,7.5-16.5c-1.1,2.4-3.3,4.1-5,7.6C350.8,791.9,351.2,793.7,350.1,797.1L350.1,797.1z M378.9,797.8 c-1.5-16.3-5-11.8-7.8-18.5C386.1,777.7,384.5,792.8,378.9,797.8L378.9,797.8z M371.5,801.9c-14.4,3-14.4,0.8-14-4.6 c0.4-6,3.8-11.6,6.8-13.9C370,785.5,372.7,793.2,371.5,801.9z"/>
    </g>
    <g>
      <rect x="421.7" y="632.9" class="st31" width="155.5" height="252.3"/>
      <rect x="421.7" y="632.9" class="st10" width="155.5" height="15.1"/>
      <rect x="421.7" y="632.9" class="st10" width="19.8" height="252.3"/>
      <rect x="421.7" y="870.1" class="st10" width="155.5" height="15.1"/>
      <rect x="557.4" y="632.9" class="st10" width="19.8" height="252.3"/>
      <rect x="423.3" y="816" class="st9" width="155.5" height="15.1"/>
      <rect x="421.7" y="756" class="st9" width="155.5" height="15.1"/>
      <path class="st32" d="M460,715.7c-10.5,1.9-22.3,11.3-18.3,23.9c3.2,10.2,17.6,14.9,30.7,12.1C504.7,744.9,490.5,710.1,460,715.7 L460,715.7z M463.5,728.6c8.7-4.1,14.5,5,7.3,7.3C463,738.5,454.7,732.8,463.5,728.6z"/>
      <path class="st32" d="M514.2,718c-10.5,1.9-22.3,11.3-18.3,23.9c3.2,10.2,17.6,14.9,30.7,12.1C558.9,747.1,544.7,712.4,514.2,718 L514.2,718z M517.7,730.9c8.7-4.1,14.5,5,7.3,7.3C517.2,740.8,509,735.1,517.7,730.9z"/>
      <path class="st32" d="M490.4,681.5c-10.5,1.9-22.3,11.3-18.3,23.9c3.3,10.2,17.6,14.9,30.7,12.1 C535.1,710.6,520.9,675.9,490.4,681.5L490.4,681.5z M493.9,694.4c8.7-4.1,14.5,5,7.3,7.3C493.4,704.3,485.1,698.6,493.9,694.4z"/>
      <path class="st33" d="M476.9,773.9c-2.8,0.7-2.2,0.6-4.5,1.6c-2,0.9-0.1,1.6-3.5,0.1c-3.7-1.6-4.9-2.2-10.3-1.9 c-19.7,1.3-21,31.2,5.2,36.9c15,3.3,28.2-3.4,32.4-13.9c3.6-9.1,0.6-20.2-9.1-22.5C484.1,773.5,479.9,773.2,476.9,773.9 L476.9,773.9z M456.2,798.3c-6.3-6.9-5-16.9,7.5-16.5c-1.1,2.4-3.3,4.1-5,7.6C456.8,793.1,457.2,794.9,456.2,798.3L456.2,798.3z M484.9,799c-1.5-16.3-5-11.8-7.8-18.5C492.1,778.9,490.6,794,484.9,799L484.9,799z M477.5,803.1c-14.4,3-14.4,0.8-14-4.6 c0.4-6,3.8-11.6,6.8-13.9C476,786.7,478.8,794.4,477.5,803.1z"/>
      <path class="st20" d="M530.3,772.7c-2.8,0.7-2.2,0.6-4.5,1.6c-2,0.9-0.1,1.6-3.5,0.1c-3.7-1.6-4.9-2.2-10.3-1.9 c-19.7,1.3-21,31.2,5.2,36.9c15,3.3,28.2-3.4,32.4-13.9c3.6-9.1,0.5-20.2-9.1-22.5C537.4,772.3,533.3,772,530.3,772.7L530.3,772.7 z M509.5,797.1c-6.3-6.9-5-16.9,7.5-16.5c-1.1,2.4-3.3,4.1-5,7.6C510.2,791.9,510.6,793.7,509.5,797.1L509.5,797.1z M538.3,797.8 c-1.5-16.3-5-11.8-7.8-18.5C545.5,777.7,544,792.8,538.3,797.8L538.3,797.8z M530.9,801.9c-14.4,3-14.4,0.8-14-4.6 c0.4-6,3.8-11.6,6.8-13.9C529.4,785.5,532.2,793.2,530.9,801.9z"/>
    </g>
    <g>
      <path class="st34" d="M408.4,868.2l59.9-0.1l3.4-41.7c-10.8-0.5-23.4-0.4-34.2-0.1c-8.9,0.3-21.6-0.4-32.3,0.1L408.4,868.2z"/>
      <path class="st35" d="M403.1,806.4c10.6-0.8,22.3-0.2,34.2-0.2c12,0,24.6-0.8,36.3,0.2l4.9,0.6l0-11.6c-5.1-2.1-3.2,1.6-5.1-3.9 c-0.8-2.3-0.7-5.5-2-8.4l-66.5-0.4c-0.6,2.5-1.1,6.9-1.7,8.7c-3.4,9.9-5.3-6.4-5.3,15.6L403.1,806.4z"/>
      <path class="st36" d="M403.1,806.4l2,20c10.6-0.4,23.4,0.2,32.3-0.1c10.8-0.4,23.4-0.5,34.2,0.1l2-20c-11.8-1-24.4-0.2-36.3-0.2 C425.3,806.2,413.7,805.6,403.1,806.4z"/>
      <path class="st36" d="M468.2,868.1l-59.9,0.1l1.5,18.4c6.5,2.9,20.4,0.8,28.5,0.8c7.5,0,21.8,0.8,28.4-0.4L468.2,868.1z"/>
    </g>
    <g>
      <polygon class="st37" points="734.6,791.1 734.5,861.9 811.4,862.2 811.2,871.3 811.2,782.2 811,790.6 &#9;&#9;"/>
      <path class="st36" d="M734.6,791.1l76.4-0.5l0.2-8.4c-3.1-17.9-14.1-30.7-16.7-48.6c-3.4-8.9-10.7-5.2-42.2-5.4 C751.2,752.8,734.5,765.1,734.6,791.1z"/>
      <path class="st36" d="M811.2,871.3l0.2-9.1l-76.9-0.3c0.5,24.2,11.9,23.7,34,23.6C788.2,885.4,806.3,890.2,811.2,871.3z"/>
      <path class="st37" d="M752.3,728.2c31.5,0.2,38.8-3.5,42.2,5.4c-0.9-11,1.8-18.8-4.9-24.2c-5.6-3.4-20.4-3.2-28.2-1.9 C750.2,709.5,752.6,717.7,752.3,728.2z"/>
    </g>
    <g>
      <polygon class="st37" points="638.1,790.9 637.9,861.8 714.8,862.1 714.6,871.2 714.7,782 714.5,790.4 &#9;&#9;"/>
      <path class="st36" d="M638.1,790.9l76.4-0.5l0.2-8.4c-3.1-17.9-14.1-30.7-16.7-48.6c-3.4-8.9-10.7-5.2-42.2-5.4 C654.6,752.6,638,765,638.1,790.9z"/>
      <path class="st36" d="M714.6,871.2l0.2-9.1l-76.9-0.3c0.5,24.2,11.9,23.7,33.9,23.6C691.6,885.3,709.7,890.1,714.6,871.2z"/>
      <path class="st37" d="M655.7,728c31.5,0.2,38.8-3.5,42.2,5.4c-0.9-11,1.9-18.8-4.9-24.2c-5.6-3.4-20.4-3.2-28.2-1.9 C653.7,709.3,656,717.6,655.7,728z"/>
    </g>
    <path class="st38" d="M1114.5,1254.1c-4.7-9.5-4.5-9.5-15.2-11.8l-0.5,23.4c-3.6-5.7-18.6-11.7-28.4-11.9 c-2.1,15.9,2,22.8,8.9,32.1c22.8,1.9,137.6,4.5,151-1.1c-4.3-8.2,1.7-5.4-11.5-7.6c6.2-7,7.2-6.9,9.5-18.3c-9.2,1.1-9,0.5-15.1,5.4 c-0.3-0.5-0.5-1.8-0.6-1.5l-4.1-10.9c-7.7,2.2-7.5,1-10.8,7l0.5-19.1c-15.2,2.7-18.5,6.5-24.5,17.2l-4.2-14.4 c-10.6,2.1-14.6,5.5-19.8,12.1l-6.1-9.4c-7.9,4.1-3.8,4.1-9,7.3l-5.2-14.5C1116.1,1242.1,1121,1244.8,1114.5,1254.1z"/>
    <g>
      <path class="st39" d="M262.1,612.3h-20.6c-16.1,0-29.2-13.1-29.2-29.2v-57.4h79.1v57.4C291.3,599.2,278.2,612.3,262.1,612.3z"/>
      <path class="st39" d="M1054.5,612.3h-20.6c-16.1,0-29.2-13.1-29.2-29.2v-57.4h79.1v57.4C1083.7,599.2,1070.7,612.3,1054.5,612.3z"/>
      <path class="st40" d="M341.4,612.3h-20.6c-16.1,0-29.2-13.1-29.2-29.2v-57.4h79.1v57.4C370.6,599.2,357.5,612.3,341.4,612.3z"/>
      <path class="st39" d="M420.6,612.3H400c-16.1,0-29.2-13.1-29.2-29.2v-57.4h79.1v57.4C449.9,599.2,436.8,612.3,420.6,612.3z"/>
      <path class="st40" d="M499.9,612.3h-20.6c-16.1,0-29.2-13.1-29.2-29.2v-57.4h79.1v57.4C529.1,599.2,516,612.3,499.9,612.3z"/>
      <path class="st39" d="M578.9,612.3h-20.6c-16.1,0-29.2-13.1-29.2-29.2v-57.4h79.1v57.4C608.1,599.2,595,612.3,578.9,612.3z"/>
      <path class="st40" d="M658.1,612.3h-20.6c-16.1,0-29.2-13.1-29.2-29.2v-57.4h79.1v57.4C687.3,599.2,674.3,612.3,658.1,612.3z"/>
      <path class="st39" d="M737.4,612.3h-20.6c-16.1,0-29.2-13.1-29.2-29.2v-57.4h79.1v57.4C766.6,599.2,753.5,612.3,737.4,612.3z"/>
      <path class="st40" d="M816.7,612.3H796c-16.1,0-29.2-13.1-29.2-29.2v-57.4h79.1v57.4C845.9,599.2,832.8,612.3,816.7,612.3z"/>
      <path class="st39" d="M895.6,612.3H875c-16.1,0-29.2-13.1-29.2-29.2v-57.4h79.1v57.4C924.8,599.2,911.7,612.3,895.6,612.3z"/>
      <path class="st40" d="M974.9,612.3h-20.6c-16.1,0-29.2-13.1-29.2-29.2v-57.4h79.1v57.4C1004.1,599.2,991,612.3,974.9,612.3z"/>
      <path class="st39" d="M1213.6,612.3H1193c-16.1,0-29.2-13.1-29.2-29.2v-57.4h79.1v57.4C1242.9,599.2,1229.8,612.3,1213.6,612.3z"/>
      <g>
        <polygon class="st41" points="278,413.7 212.2,525.7 291.3,525.7 347,413.7 &#9;&#9;&#9;"/>
        <polygon class="st41" points="969.3,413.7 1004.7,525.7 1083.7,525.7 1038.3,413.7 &#9;&#9;&#9;"/>
        <polygon class="st42" points="347.1,413.7 291.5,525.7 370.6,525.7 416.1,413.7 &#9;&#9;&#9;"/>
        <polygon class="st41" points="416.3,413.7 370.8,525.7 449.9,525.7 485.3,413.7 &#9;&#9;&#9;"/>
        <polygon class="st42" points="485.5,413.7 450,525.7 529.1,525.7 554.4,413.7 &#9;&#9;&#9;"/>
        <polygon class="st41" points="554.3,413.7 529,525.7 608.1,525.7 623.3,413.7 &#9;&#9;&#9;"/>
        <polygon class="st42" points="623.5,413.7 608.3,525.7 687.3,525.7 692.5,413.7 &#9;&#9;&#9;"/>
        <polygon class="st41" points="692.6,413.7 687.5,525.7 766.6,525.7 761.6,413.7 &#9;&#9;&#9;"/>
        <polygon class="st42" points="761.8,413.7 766.8,525.7 845.9,525.7 830.8,413.7 &#9;&#9;&#9;"/>
        <polygon class="st41" points="830.7,413.7 845.7,525.7 924.8,525.7 899.7,413.7 &#9;&#9;&#9;"/>
        <polygon class="st42" points="899.8,413.7 925,525.7 1004.1,525.7 968.8,413.7 &#9;&#9;&#9;"/>
        <polygon class="st41" points="1108.1,413.7 1163.8,525.7 1242.9,525.7 1177.1,413.7 &#9;&#9;&#9;"/>
        <polygon class="st42" points="1038.6,413.7 1084.1,525.7 1163.2,525.7 1107.6,413.7 &#9;&#9;&#9;"/>
      </g>
      <path class="st40" d="M1134,612.3h-20.6c-16.1,0-29.2-13.1-29.2-29.2v-57.4h79.1v57.4C1163.2,599.2,1150.1,612.3,1134,612.3z"/>
    </g>
  </g>
</svg>